<svg xmlns="http://www.w3.org/2000/svg" width="800" height="800" viewBox="0 0 400 400"><defs><g id="a" fill="none"><path stroke="#aaa" stroke-width="12" d="M4 128s44 60 124 60 124-60 124-60-44-60-124-60S4 128 4 128z"/><circle stroke="#aaa" stroke-width="12" cx="128" cy="128" r="28"/><path stroke="#fff" stroke-width="5" d="M4 128s44 60 124 60 124-60 124-60-44-60-124-60S4 128 4 128z"/><circle stroke="#fff" stroke-width="5" cx="128" cy="128" r="28"/></g><g id="b" fill="transparent" stroke-linecap="round" stroke-linejoin="round"><path stroke="#aaa" stroke-width="12" d="M50 270V100h300v170zm55 30h195"/><path stroke="#fff" stroke-width="5" d="M50 270V100h300v170zm55 30h195"/></g></defs><circle cx="200" cy="200" r="200" fill="#3C4048"/><use href="#a" x="72" y="58"/><use href="#b"/></svg>