<svg xmlns:xlink="http://www.w3.org/1999/xlink" xmlns="http://www.w3.org/2000/svg" viewBox="0 0 210 110" version="1.1" id="svg1">
  <defs>
    <linearGradient id="linearGradient1">
      <stop stop-color="#0a052a" stop-opacity="1;" offset="0.18927445" id="stop1"/>
      <stop stop-color="#13154f" stop-opacity="1;" offset="0.53943217" id="stop3"/>
      <stop stop-color="#544535" stop-opacity="1;" offset="1" id="stop2"/>
    </linearGradient>
    <linearGradient xlink:href="#linearGradient1" id="linearGradient2" x1="106.95644" y1="-56.302448" x2="106.95644" y2="82.540482" gradientUnits="userSpaceOnUse"/>
    <g id="star" >
      <circle fill="#fdffe4" cx="0" cy="0" r=".5"/>
    </g>
    <path id="townhouse" fill-opacity="1" strokeWidth="0.264999" d="M 0 0 l 2.5 0 l 0 -2.5 l 2.5 0 l 0 -2.5 l 2.5 0 l 0 -2.5 l 2.5 0 l 0 -2.5 l 2.5 0 l 0 2.5 l 2.5 0 l 0 2.5 l 2.5 0 l 0 2.5 l 2.5 0 l 0 2.5 l 0 20 l -17.5 0 l 0 -20"/>
    <path id="townhouse2" fill-opacity="1" strokeWidth="0.264999" d="M 0 0 l 10 -10 l 10 10 l 0 20 l -20 0 l 0 -20"/>
  </defs>
  <g id="layer1">
    <rect fill="url(#linearGradient2)" strokeWidth="0.264999" id="rect1" width="221.56564" height="94.748459" x="-4.3730059" y="-2.5509202"/>
    <rect fill="#323232" strokeWidth="0.264999" id="rect3" width="233.5914" height="24.415951" x="-7.6527605" y="88.917786"/>
    <use href="#star" x="17" y="14" />
    <use href="#star" x="68" y="13" />
    <use href="#star" x="128" y="20" />
    <use href="#star" x="182" y="25" />
    <use href="#star" x="95" y="37" />
    <use href="#star" x="158" y="27" />
    <use href="#star" x="64" y="14" />
    <use href="#star" x="61" y="31" />
    <use href="#star" x="27" y="31" />
    <use href="#star" x="42" y="20" />
    <use href="#star" x="95" y="37" />
    <use href="#star" x="49" y="41" />
    <use href="#star" x="108" y="32" />
    <use href="#star" x="100" y="57" />
    <use href="#star" x="158" y="65" />
    <use href="#star" x="179" y="49" />
    <use href="#star" x="197" y="11" />
    <use href="#star" x="169" y="9" />
    <use href="#star" x="142" y="35" />
    <use href="#star" x="83" y="46" />
    <use href="#star" x="81" y="25" />
    <use href="#star" x="7" y="51" />
    <use href="#star" x="11" y="37" />
    <use href="#star" x="38" y="40" />
    <use href="#star" x="33" y="12" />
    <use href="#star" x="26" y="6" />
    <use href="#star" x="59" y="8" />
    <use href="#star" x="68" y="16" />
    <use href="#star" x="116" y="33" />
    <use href="#star" x="146" y="19" />
    <use href="#star" x="182" y="19" />
    <use href="#star" x="201" y="11" />
    <use href="#star" x="188" y="23" />
    <use href="#star" x="142" y="20" />
    <use href="#star" x="106" y="14" />
    <use href="#star" x="131" y="12" />
    <use href="#star" x="152" y="11" />
    <path fill="#323232" d="M 0 110 L 0 90 l 10 0 l 0 -4 l 2 -1.5 l 0 -4 l 4.5 0 l 0 3 l 1 0 l 0 -1 l 1 0 l 0 -1 l 1 0 l 0 -1 l 1 0 l 0 1 l 1 0 l 0 1 l 1 0 l 0 1 l 1 0 l 0 -3 l 6 -4 l 0 -15 l -0.5 -0.5 l 0.5 -0.5 l 2.5 -14 l 2.5 14 l 0.5 0.5 l -0.5 0.5 l 0 15 l 4 2.66 l 6 0 l 0 4 l 4 -2 l -1.5 0 l 3 -2.5 l 3 2.5 -1.5 0 l 4 2 l 0 -2 l 2 0 l 0 -25 l 3.5 -25 l 3.5 25 l 0 10 l 2 -3 l 2 3 l 0 -10 l 3.5 -25 l 3.5 25 l 0 25 l 1.5 -1.5 l 0 -1.5 l 2 0 l 0 1.5 l 1.5 1.5 l 0 1.5 l 8 0 l 0 -4.5 l 4.5 -10 l 4 10 l 0 -2 l 2 0 l 0 -2 l 2 0 l 0 -2 l 2 0 l 0 2 l 2 0 l 0 2 l 2 0 l 0 2 l 4.5 -10 l 4 10 l 0 4.5 l 8 0 l 0 -6 l 6 -6 l 0 -6 l -0.5 -3 l 1 -10 l 0.5 0.5 l 2 -10 l 2 10 l 0.5 -0.5 l 1 10 l -0.5 3 l 0 6 l 6 6 l 0 6 l 5 0 l 2 -2 l 2 0 l 0 -2 l 2 0 l 0 -2 l 2 0 l 0 -5 l 2 -15 l 2 15 l 0 5 l 2 0 l 0 2 l 2 0 l 0 2 l 2 0 l 0 2 l 6 0 l 0 -15 l -0.5 -0.5 l 0.5 -0.5 l 3 -25 l 3 25 l 0.5 0.5 l -0.5 0.5 l 0 12 l 5 0 l 0 -12 l -0.5 -0.5 l 0.5 -0.5 l 3 -25 l 3 25 l 0.5 0.5 l -0.5 0.5 l 0 20 l 3 -6 l 3 6 l 0 4 L 210 90 L 210 110 L 0 110" />
    <use href="#townhouse" x="-2" y="96" fill="#1a1917" />
    <use href="#townhouse2" x="18" y="92" fill="#1a1917" />
    <use href="#townhouse" x="35.5" y="98" fill="#1a1917" />
    <use href="#townhouse" x="53" y="93" fill="#1a1917" />
    <use href="#townhouse" x="70.5" y="98" fill="#1a1917" />
    <use href="#townhouse2" x="90.5" y="96" fill="#1a1917" />
    <use href="#townhouse" x="108" y="94" fill="#1a1917" />
    <use href="#townhouse" x="125.5" y="92" fill="#1a1917" />
    <use href="#townhouse2" x="145.5" y="95" fill="#1a1917" />
    <use href="#townhouse" x="163" y="90" fill="#1a1917" />
    <use href="#townhouse2" x="183" y="98" fill="#1a1917" />
    <use href="#townhouse" x="200.5" y="94" fill="#1a1917" />
  </g>
</svg>
