<svg xmlns:xlink="http://www.w3.org/1999/xlink" xmlns="http://www.w3.org/2000/svg" viewBox="0 0 210 110" version="1.1" id="svg1">
  <defs>
    <linearGradient id="linearGradient1">
      <stop stop-color="#05222a" stop-opacity="1;" offset="0.18927445" id="stop1"/>
      <stop stop-color="#003853" stop-opacity="1;" offset="0.53943217" id="stop3"/>
      <stop stop-color="#035f8e" stop-opacity="1;" offset="1" id="stop2"/>
    </linearGradient>
    <linearGradient xlink:href="#linearGradient1" id="linearGradient2" x1="106.95644" y1="-56.302448" x2="106.95644" y2="82.540482" gradientUnits="userSpaceOnUse"/>
    <g id="star" >
      <circle fill="#fdffe4" cx="0" cy="0" r=".5"/>
    </g>
    <rect id="townhouse" fill-opacity="1" strokeWidth="0.264999" width="21" height="28" x="0" y="0"/>
  </defs>
  <g id="layer1">
    <rect fill="url(#linearGradient2)" strokeWidth="0.264999" id="rect1" width="221.56564" height="94.748459" x="-4.3730059" y="-2.5509202"/>
    <rect fill="#1a1917" strokeWidth="0.264999" id="rect3" width="233.5914" height="24.415951" x="-7.6527605" y="88.917786"/>
    <use href="#star" x="17" y="14" />
    <use href="#star" x="68" y="13" />
    <use href="#star" x="128" y="20" />
    <use href="#star" x="182" y="25" />
    <use href="#star" x="95" y="37" />
    <use href="#star" x="158" y="27" />
    <use href="#star" x="64" y="14" />
    <use href="#star" x="61" y="31" />
    <use href="#star" x="27" y="31" />
    <use href="#star" x="42" y="20" />
    <use href="#star" x="95" y="37" />
    <use href="#star" x="49" y="41" />
    <use href="#star" x="108" y="32" />
    <use href="#star" x="100" y="57" />
    <use href="#star" x="158" y="65" />
    <use href="#star" x="179" y="49" />
    <use href="#star" x="197" y="11" />
    <use href="#star" x="169" y="9" />
    <use href="#star" x="142" y="35" />
    <use href="#star" x="83" y="46" />
    <use href="#star" x="81" y="25" />
    <use href="#star" x="7" y="51" />
    <use href="#star" x="11" y="37" />
    <use href="#star" x="38" y="40" />
    <use href="#star" x="33" y="12" />
    <use href="#star" x="26" y="6" />
    <use href="#star" x="59" y="8" />
    <use href="#star" x="68" y="16" />
    <use href="#star" x="116" y="33" />
    <use href="#star" x="146" y="19" />
    <use href="#star" x="182" y="19" />
    <use href="#star" x="201" y="11" />
    <use href="#star" x="188" y="23" />
    <use href="#star" x="142" y="20" />
    <use href="#star" x="106" y="14" />
    <use href="#star" x="131" y="12" />
    <use href="#star" x="152" y="11" />
    <path fill="#323232" d="M 0 110 L 0 70 l 5 -30 l 5 30 l 30 0 l 0 -10 l 4 -15 l 4 15 l 0 10 l 50 0 l 5 -40 l 5 40 l 60 0 l 0 -15 l 5 -20 l 5 20 l 0 15 l 2 0 l 0 -15 l 5 -20 l 5 20 l 0 15 L 210 70 L 210 110 L 0 110" />
    <use href="#townhouse" x="0" y="82" fill="#595949" />
    <use href="#townhouse" x="21" y="82" fill="#495959" />
    <use href="#townhouse" x="42" y="82" fill="#595949" />
    <use href="#townhouse" x="63" y="82" fill="#495959" />
    <use href="#townhouse" x="84" y="82" fill="#595949" />
    <use href="#townhouse" x="105" y="82" fill="#495959" />
    <use href="#townhouse" x="126" y="82" fill="#595949" />
    <use href="#townhouse" x="147" y="82" fill="#495959" />
    <use href="#townhouse" x="168" y="82" fill="#595949" />
    <use href="#townhouse" x="189" y="82" fill="#495959" />
  </g>
</svg>
