<svg xmlns:xlink="http://www.w3.org/1999/xlink" xmlns="http://www.w3.org/2000/svg" viewBox="0 0 210 110" version="1.1" id="svg1">
  <defs id="defs1">
    <linearGradient id="linearGradient1">
      <stop stop-color="#05222a" stop-opacity="1;" offset="0.18927445" id="stop1"/>
      <stop stop-color="#003853" stop-opacity="1;" offset="0.53943217" id="stop3"/>
      <stop stop-color="#035f8e" stop-opacity="1;" offset="1" id="stop2"/>
    </linearGradient>
    <linearGradient xlink:href="#linearGradient1" id="linearGradient2" x1="106.95644" y1="-56.302448" x2="106.95644" y2="82.540482" gradientUnits="userSpaceOnUse"/>
    <g id="star" >
      <circle fill="#fdffe4" cx="0" cy="0" r=".5"/>
    </g>
  </defs>
  <g id="layer1">
    <rect fill="url(#linearGradient2)" strokeWidth="0.264999" id="rect1" width="221.56564" height="94.748459" x="-4.3730059" y="-2.5509202"/>
    <rect fill="#1a1917" strokeWidth="0.264999" id="rect3" width="233.5914" height="24.415951" x="-7.6527605" y="88.917786"/>
    <rect fill="#323232" fill-opacity="1" strokeWidth="0.451891" id="rect13-8" width="28.42454" height="61.95092" x="186.67679" y="51.276447"/>
    <rect fill="#323232" fill-opacity="1" strokeWidth="0.234376" id="rect13-8-2" width="14.941104" height="31.704294" x="171.25317" y="81.756248"/>
    <rect fill="#323232" fill-opacity="1" strokeWidth="0.34902" id="rect13-8-4" width="25.509203" height="41.179142" x="145.6781" y="71.412895"/>
    <rect fill="#323232" fill-opacity="1" strokeWidth="0.311234" id="rect13-8-8" width="12.390183" height="67.417175" x="133.32727" y="45.987816"/>
    <rect fill="#323232" fill-opacity="1" strokeWidth="0.366518" id="rect13-8-1" width="22.229448" height="52.111656" x="111.43669" y="60.938763"/>
    <rect fill="#323232" fill-opacity="1" strokeWidth="0.460666" id="rect13-8-88" width="38.62822" height="47.374233" x="72.488358" y="65.681107"/>
    <rect fill="#323232" fill-opacity="1" strokeWidth="0.38096" id="rect13-8-7" width="22.593864" height="55.391411" x="50.562836" y="57.104771"/>
    <rect fill="#323232" fill-opacity="1" strokeWidth="0.43565" id="rect13-8-3" width="28.42454" height="57.577915" x="22.836678" y="54.249432"/>
    <rect fill="#494949" fill-opacity="1" strokeWidth="0.264999" id="rect4" width="25.509203" height="43.365643" x="-3.6441712" y="70.696922"/>
    <rect fill="#494949" fill-opacity="1" strokeWidth="0.193809" id="rect5" width="16.763189" height="33.161964" x="36.077301" y="80.536194"/>
    <rect fill="#494949" fill-opacity="1" strokeWidth="0.193809" id="rect5-0" width="16.763189" height="33.161964" x="199.64696" y="81.396744"/>
    <rect fill="#494949" fill-opacity="1" strokeWidth="0.264999" id="rect6" width="20.407362" height="40.085888" x="72.88343" y="73.976685"/>
    <rect fill="#494949" fill-opacity="1" strokeWidth="0.264999" id="rect7" width="23.687117" height="31.704296" x="120.6221" y="81.993851"/>
    <rect fill="#494949" fill-opacity="1" strokeWidth="0.264999" id="rect8" width="13.847853" height="28.060123" x="163.98772" y="86.002441"/>
    <rect fill="#5a5a5a" fill-opacity="1" strokeWidth="0.152003" id="rect9" width="14.576686" height="22.229452" x="21.500614" y="92.197525"/>
    <rect fill="#5a5a5a" fill-opacity="1" strokeWidth="0.264999" id="rect10" width="19.678526" height="22.593864" x="53.20491" y="91.104294"/>
    <rect fill="#5a5a5a" fill-opacity="1" strokeWidth="0.264999" id="rect11" width="27.695705" height="20.77178" x="93.655212" y="92.561966"/>
    <rect fill="#5a5a5a" fill-opacity="1" strokeWidth="0.264999" id="rect12" width="18.585276" height="21.500614" x="144.67361" y="92.561951"/>
    <rect fill="#5a5a5a" fill-opacity="1" strokeWidth="0.264999" id="rect13" width="21.86503" height="27.695705" x="177.47118" y="86.731277"/>
    <rect fill="#494949" fill-opacity="1" strokeWidth="0.381243" id="rect13-8-73" width="28.42454" height="44.094479" x="-5.7849827" y="68.596451"/>
    <use href="#star" x="17" y="14" />
    <use href="#star" x="68" y="13" />
    <use href="#star" x="128" y="20" />
    <use href="#star" x="182" y="25" />
    <use href="#star" x="95" y="37" />
    <use href="#star" x="158" y="27" />
    <use href="#star" x="64" y="14" />
    <use href="#star" x="61" y="31" />
    <use href="#star" x="27" y="31" />
    <use href="#star" x="42" y="20" />
    <use href="#star" x="95" y="37" />
    <use href="#star" x="49" y="41" />
    <use href="#star" x="108" y="32" />
    <use href="#star" x="100" y="57" />
    <use href="#star" x="158" y="65" />
    <use href="#star" x="179" y="49" />
    <use href="#star" x="197" y="11" />
    <use href="#star" x="169" y="9" />
    <use href="#star" x="142" y="35" />
    <use href="#star" x="83" y="46" />
    <use href="#star" x="81" y="25" />
    <use href="#star" x="7" y="51" />
    <use href="#star" x="11" y="37" />
    <use href="#star" x="38" y="40" />
    <use href="#star" x="33" y="12" />
    <use href="#star" x="26" y="6" />
    <use href="#star" x="59" y="8" />
    <use href="#star" x="68" y="16" />
    <use href="#star" x="116" y="33" />
    <use href="#star" x="146" y="19" />
    <use href="#star" x="182" y="19" />
    <use href="#star" x="201" y="11" />
    <use href="#star" x="188" y="23" />
    <use href="#star" x="142" y="20" />
    <use href="#star" x="106" y="14" />
    <use href="#star" x="131" y="12" />
    <use href="#star" x="152" y="11" />
  </g>
</svg>
