<svg xmlns:xlink="http://www.w3.org/1999/xlink" xmlns="http://www.w3.org/2000/svg" viewBox="0 0 210 110" version="1.1" id="svg1">
  <defs>
    <linearGradient id="linearGradient10">
      <stop stop-color="#fbefe4" stop-opacity="1" offset="0" id="stop11"/>
      <stop stop-color="#fbefe4" stop-opacity="0" offset="1" id="stop12"/>
    </linearGradient>
    <linearGradient id="linearGradient8">
      <stop stop-color="#62500e" stop-opacity="1" offset="0" id="stop10"/>
      <stop stop-color="#e3c03e" stop-opacity="1" offset="0.22082019" id="stop8"/>
      <stop stop-color="#62500e" stop-opacity="1" offset="1" id="stop9"/>
    </linearGradient>
    <linearGradient xlink:href="#linearGradient8" id="linearGradient9"/>
    <radialGradient xlink:href="#linearGradient10" id="radialGradient12"/>
    <g id="screen">
      <rect fill="#000000" fillOpacity="1" strokeWidth="0.264999" id="rect14" width="22" height="3" x="0" y="-3"/>
      <rect fill="#000000" fillOpacity="1" strokeWidth="0.264999" id="rect15" width="3" height="10" x="9" y="-10"/>
      <rect fill="#000000" fillOpacity="1" strokeWidth="0.226239" id="rect12" width="48" height="32" x="-14" y="-42"/>
      <rect fill="#2c2c2c" fillOpacity="1" strokeWidth="0.234348" id="rect13" width="46" height="29" x="-13" y="-41"/>
    </g>
    <g id="bookshelf">
      <rect fill="#a18965" fillOpacity="1" strokeWidth="0.290974" id="rect16" width="2" height="60" x="0" y="0"/>
      <rect fill="#000000" fillOpacity="1" strokeWidth="0.290974" id="rect17" width="60" height="2" x="-60" y="5"/>
      <rect fill="#000000" fillOpacity="1" strokeWidth="0.290974" id="rect17" width="60" height="2" x="-60" y="30"/>
      <rect fill="#000000" fillOpacity="1" strokeWidth="0.290974" id="rect17" width="60" height="2" x="-60" y="55"/>
    </g>
    <g id="cellbright">
      <path d="M 0 0 l 5 -8 l 9 0 l 5 8 l -5 8 l -9 0 l -5 -8" fill="#02a6a7" stroke="#02343a" stroke-width="0.5"/>
    </g>
    <g id="celldark">
      <path d="M 0 0 l 5 -8 l 9 0 l 5 8 l -5 8 l -9 0 l -5 -8" fill="#066b6c" stroke="#02343a" stroke-width="0.5"/>
    </g>
    <g id="walllight">
      <use href="#cellbright"/>
      <use href="#celldark" x="0" y="-16"/>
      <use href="#cellbright" x="14" y="-8"/>
      <use href="#celldark" x="14" y="-24"/>
      <use href="#cellbright" x="28" y="-16"/>
      <use href="#cellbright" x="28" y="-32"/>
      <use href="#cellbright" x="42" y="-24"/>
      <use href="#celldark" x="56" y="-16"/>
      <use href="#cellbright" x="56" y="-32"/>
      <use href="#celldark" x="70" y="-8"/>
      <use href="#cellbright" x="70" y="-24"/>
    </g>
    <g id="desk">
      <rect fill="#000000" fillOpacity="1" strokeWidth="0.264999" width="2" height="40" x="8" y="3"/>
      <rect fill="#000000" fillOpacity="1" strokeWidth="0.264999" width="2" height="40" x="119" y="3"/>
      <rect fill="#000000" fillOpacity="1" strokeWidth="0.264999" width="1.5" height="32" x="18" y="3"/>
      <rect fill="#000000" fillOpacity="1" strokeWidth="0.264999" width="1.5" height="32" x="109" y="3"/>
      <rect fill="#a18965" fillOpacity="1" strokeWidth="0.264999" width="128" height="3" x="0" y="0"/>
    </g>
    <g id="lamp">
      <rect fill="#af7e64" fillOpacity="1" strokeWidth="0.126953" id="rect6" width="2" height="10" x="-1" y="4"/>
      <rect fill="url(#linearGradient9)" strokeWidth="0.264999" id="rect8" width="7" height="3" x="-3.5" y="14"/>
      <rect fill="#af7e64" fillOpacity="1" strokeWidth="0.105009" id="rect7" width="14" height="2" x="-7" y="17"/>
      <ellipse fill="#fbefe4" fillOpacity="1" strokeWidth="0.264999" id="path5" cx="0" cy="0" rx="5" ry="5"/>
      <ellipse fill="url(#radialGradient12)" strokeWidth="0.818992" id="path5-1" cx="0" cy="0" rx="15" ry="15"/>
    </g>
    <g id="triforce">
      <path fill="#d9a423" fillOpacity="1" strokeWidth="0.264999" id="path28" d="M -3 1.5 0 -3.5 3 1.5 Z"/>
      <path fill="#d9a423" fillOpacity="1" strokeWidth="0.264999" id="path28" d="M -3 1.5 0 -3.5 3 1.5 Z" transform="translate(-3 5)"/>
      <path fill="#d9a423" fillOpacity="1" strokeWidth="0.264999" id="path28" d="M -3 1.5 0 -3.5 3 1.5 Z" transform="translate(3 5)"/>
    </g>
    <g id="hpbooks">
      <rect fill="#14134b" fillOpacity="1" strokeWidth="0.150921" width="2" height="18" x="0" y="0"/>
      <rect fill="#114311" fillOpacity="1" strokeWidth="0.170341" width="2.3" height="18" x="2.2" y="0"/>
      <rect fill="#13289f" fillOpacity="1" strokeWidth="0.203701" width="2.7" height="18" x="4.7" y="0"/>
      <rect fill="#2a7aa7" fillOpacity="1" strokeWidth="0.203701" width="4.7" height="18" x="7.6" y="0"/>
      <rect fill="#8a1117" fillOpacity="1" strokeWidth="0.203701" width="5.6" height="18" x="12.5" y="0"/>
      <rect fill="#6c411b" fillOpacity="1" strokeWidth="0.203701" width="4.1" height="18" x="18.3" y="0"/>
      <rect fill="#3c1671" fillOpacity="1" strokeWidth="0.203701" width="4.8" height="18" x="22.6" y="0"/>
    </g>
    <g id="pokeball">
      <circle fill="#fff" stroke="#000" stroke-width=".4" cx="0" cy="0" r="5"/>
      <path fill="#ad0a0a" fillOpacity="1" strokeWidth="0.145575" stroke="#000" stroke-width=".4" d="m -5 0 a 5 5 180 0 1 10,0 0 0 1 5,-0.166732 5,5 0 0 1 2.716704,4.457561 l -5.169209,0.127681 z"/>
      <path stroke="#000" stroke-width=".4" d="m -5 0 l 10 0"/>
      <circle fill="#000" cx="0" cy="0" r="1.5"/>
      <circle fill="#fff" cx="0" cy="0" r="1"/>
    </g>
    <g id="books">
      <rect fill="#a16580" fillOpacity="1" strokeWidth="0.178394" width="6.5" height="18" x="43" y="-6"/>
      <rect fill="#624d3c" fillOpacity="1" strokeWidth="0.178394" width="7" height="13" x="36" y="-1"/>
      <rect fill="#65a199" fillOpacity="1" strokeWidth="0.119441" width="5" height="12" x="31" y="0"/>
      <rect fill="#a19d65" fillOpacity="1" strokeWidth="0.178394" width="3.5" height="18" x="27.5" y="-6"/>
      <rect fill="#a16575" fillOpacity="1" strokeWidth="0.178394" width="4.5" height="15" x="23" y="-3"/>
      <rect fill="#657ba1" fillOpacity="1" strokeWidth="0.178394" width="7" height="10" x="16" y="2"/>
      <rect fill="#a19765" fillOpacity="1" strokeWidth="0.241404" width="9" height="14.5" x="7" y="-2.5"/>
      <rect fill="#a18965" fillOpacity="1" strokeWidth="0.178394" width="7" height="17" x="0" y="-5"/>
    </g>
    <g id="duck" >
	    <path style="fill:#D2907E;" d="M90.465,186.912c0.086-7.581-5.26-27.49,2.771-43.781c8.025-16.291-42.226-20.546-67.682,0.367 c-24.51,20.137,1.764,37.468,17.938,33.657C76.267,169.428,90.299,202.261,90.465,186.912z"/>
	    <path style="fill:#DD9275;" d="M73.315,96.009c0.079,7.574-5.26,27.483,2.764,43.782c8.025,16.277-46.799,25.105-67.674-0.375 c-20.878-25.48,1.76-37.461,17.941-33.65C59.102,113.485,73.137,80.654,73.315,96.009z"/>
	    <path style="fill:#F8E68C;" d="M76.45,264.211c18.183-21.406,33.092-31.038,20.821-50.433 c-23.402-23.408-34.309-48.743-34.309-84.458c0-35.709,14.476-68.035,37.876-91.436C124.243,14.483,156.563,0,192.278,0 s68.035,14.483,91.443,37.884c23.401,23.402,37.87,55.728,37.87,91.436c0,52.789-42.222,95.011-42.222,121.4 c-2.64,10.561,15.835,23.761,39.582,23.761c23.761,0,102.932,18.467,160.988-58.063c15.28-21.122,33.755-9.238,31.675,21.107 C509.618,266.609,493.133,512,318.951,512c-50.135,0-43.788,0-139.874,0c-40.074,0-76.36-16.25-102.627-42.513 c-26.273-26.27-42.52-62.554-42.52-102.649C33.93,326.765,50.176,290.474,76.45,264.211"/>
	    <path style="fill:#E5D29B;" d="M219.533,340.458h193.217c21.108,0,26.388,36.941-7.92,58.063c0,26.38-13.201,65.97-52.782,65.97 c-39.596,0-87.092,0-121.399,0c-34.316,0-58.064-39.59-58.064-63.337C172.584,377.399,195.777,340.458,219.533,340.458z"/>
	    <path style="fill:#F2E0A8;" d="M206.331,324.616h193.218c21.108,0,26.388,36.949-7.92,58.064c0,26.395-13.194,65.983-52.776,65.983 c-39.589,0-87.097,0-121.406,0s-58.056-39.589-58.056-63.344C159.39,361.565,182.583,324.616,206.331,324.616z"/>
	    <path style="fill:#FFFFFF;" d="M159.39,109.522c0,16.77-13.596,30.359-30.349,30.359c-16.763,0-30.355-13.589-30.355-30.359 c0-16.748,13.592-30.344,30.355-30.344C145.794,79.177,159.39,92.773,159.39,109.522z"/>
	    <path style="fill:#838384;" d="M143.556,109.522c0,8.025-6.503,14.525-14.514,14.525c-8.018,0-14.518-6.5-14.518-14.525 c0-8.003,6.5-14.503,14.518-14.503C137.052,95.018,143.556,101.518,143.556,109.522z"/>
	    <path style="opacity:0.07;fill:#D9551A;" d="M479.939,216.418c-58.056,76.53-137.227,58.063-160.988,58.063 c-23.747,0-42.222-13.201-39.582-23.761c0-16.264,16.049-38.563,28.356-65.637l-254.33,254.33 c6.371,11.011,14.115,21.128,23.055,30.075C102.717,495.75,139.003,512,179.077,512c96.086,0,89.738,0,139.874,0 c174.182,0,190.668-245.391,192.664-274.474C513.694,207.18,495.219,195.296,479.939,216.418z"/>
    </g>
  </defs>
  <rect fill="#02343a" strokeWidth="0.264999" fillOpacity="1" id="rect1" width="219.01471" height="90.375458" x="-4.3730059" y="-3.2797544"/>
  <rect fill="#1a1917" fillOpacity="1" strokeWidth="0.264999" id="rect2" width="217.19264" height="27.695705" x="-2.9153376" y="86.731285"/>
  <use href="#desk" x="75" y="57"/>
  <use href="#lamp" x="190" y="38"/>
  <use href="#walllight" x="87" y="26"/>
  <use href="#screen" x="146" y="57"/>
  <use href="#screen" x="97" y="57"/>
  <use href="#bookshelf" x="60" y="32"/>
  <use href="#triforce" x="50" y="30"/>
  <use href="#hpbooks" x="5" y="19"/>
  <use href="#pokeball" x="20" y="57" transform="rotate(40,20,57)"/>
  <use href="#books" x="0" y="75"/>
  <use href="#duck" x="8500" y="3290" transform="scale(.015,.015)" />
</svg>