<svg xmlns:xlink="http://www.w3.org/1999/xlink" xmlns="http://www.w3.org/2000/svg" xmlns:svg="http://www.w3.org/2000/svg" width="210mm" height="110mm" viewBox="0 0 210 110" version="1.1" id="svg1">
  <defs>
    <linearGradient id="linearGradient10">
      <stop style="stop-color:#fbefe4;stop-opacity:1;" offset="0" id="stop11"/>
      <stop style="stop-color:#fbefe4;stop-opacity:0;" offset="1" id="stop12"/>
    </linearGradient>
    <linearGradient id="linearGradient8">
      <stop style="stop-color:#62500e;stop-opacity:1;" offset="0" id="stop10"/>
      <stop style="stop-color:#e3c03e;stop-opacity:1;" offset="0.22082019" id="stop8"/>
      <stop style="stop-color:#62500e;stop-opacity:1;" offset="1" id="stop9"/>
    </linearGradient>
    <linearGradient xlink:href="#linearGradient8" id="linearGradient9"/>
    <radialGradient xlink:href="#linearGradient10" id="radialGradient12"/>
    <g id="screen">
      <rect style="fill:#000000;fill-opacity:1;stroke-width:0.264999" id="rect14" width="22" height="3" x="0" y="-3"/>
      <rect style="fill:#000000;fill-opacity:1;stroke-width:0.264999" id="rect15" width="3" height="10" x="9" y="-10"/>
      <rect style="fill:#000000;fill-opacity:1;stroke-width:0.226239" id="rect12" width="48" height="32" x="-14" y="-42"/>
      <rect style="fill:#3b3b3b;fill-opacity:1;stroke-width:0.234348" id="rect13" width="46" height="29" x="-13" y="-41"/>
    </g>
    <g id="bookshelf">
      <rect style="fill:#a18965;fill-opacity:1;stroke-width:0.290974" id="rect16" width="2" height="60" x="0" y="0"/>
      <rect style="fill:#000000;fill-opacity:1;stroke-width:0.290974" id="rect17" width="60" height="2" x="-60" y="5"/>
      <rect style="fill:#000000;fill-opacity:1;stroke-width:0.290974" id="rect17" width="60" height="2" x="-60" y="30"/>
      <rect style="fill:#000000;fill-opacity:1;stroke-width:0.290974" id="rect17" width="60" height="2" x="-60" y="55"/>
    </g>
    <g id="cellbright">
      <path d="M 0 0 l 5 -8 l 9 0 l 5 8 l -5 8 l -9 0 l -5 -8" fill="#02a6a7" stroke="#02343a" stroke-width="0.5"/>
    </g>
    <g id="celldark">
      <path d="M 0 0 l 5 -8 l 9 0 l 5 8 l -5 8 l -9 0 l -5 -8" fill="#066b6c" stroke="#02343a" stroke-width="0.5"/>
    </g>
    <g id="walllight">
      <use href="#cellbright"/>
      <use href="#celldark" x="0" y="-16"/>
      <use href="#cellbright" x="14" y="-8"/>
      <use href="#celldark" x="14" y="-24"/>
      <use href="#cellbright" x="28" y="-16"/>
      <use href="#cellbright" x="28" y="-32"/>
      <use href="#cellbright" x="42" y="-24"/>
      <use href="#celldark" x="56" y="-16"/>
      <use href="#cellbright" x="56" y="-32"/>
      <use href="#celldark" x="70" y="-8"/>
      <use href="#cellbright" x="70" y="-24"/>
    </g>
    <g id="desk">
      <rect style="fill:#000000;fill-opacity:1;stroke-width:0.264999" width="2" height="40" x="8" y="3"/>
      <rect style="fill:#000000;fill-opacity:1;stroke-width:0.264999" width="2" height="40" x="119" y="3"/>
      <rect style="fill:#000000;fill-opacity:1;stroke-width:0.264999" width="1.5" height="32" x="18" y="3"/>
      <rect style="fill:#000000;fill-opacity:1;stroke-width:0.264999" width="1.5" height="32" x="109" y="3"/>
      <rect style="fill:#a18965;fill-opacity:1;stroke-width:0.264999" width="128" height="3" x="0" y="0"/>
    </g>
    <g id="lamp">
      <rect style="fill:#af7e64;fill-opacity:1;stroke-width:0.126953" id="rect6" width="2" height="10" x="-1" y="4"/>
      <rect style="fill:url(#linearGradient9);stroke-width:0.264999" id="rect8" width="7" height="3" x="-3.5" y="14"/>
      <rect style="fill:#af7e64;fill-opacity:1;stroke-width:0.105009" id="rect7" width="14" height="2" x="-7" y="17"/>
      <ellipse style="fill:#fbefe4;fill-opacity:1;stroke-width:0.264999" id="path5" cx="0" cy="0" rx="5" ry="5"/>
      <ellipse style="fill:url(#radialGradient12);stroke-width:0.818992" id="path5-1" cx="0" cy="0" rx="15" ry="15"/>
      <g id="triforce">
        <path style="fill:#d9a423;fill-opacity:1;stroke-width:0.264999" id="path28" d="M -3 1.5 0 -3.5 3 1.5 Z"/>
        <path style="fill:#d9a423;fill-opacity:1;stroke-width:0.264999" id="path28" d="M -3 1.5 0 -3.5 3 1.5 Z" transform="translate(-3 5)"/>
        <path style="fill:#d9a423;fill-opacity:1;stroke-width:0.264999" id="path28" d="M -3 1.5 0 -3.5 3 1.5 Z" transform="translate(3 5)"/>
      </g>
      <g id="hpbooks">
        <rect style="fill:#14134b;fill-opacity:1;stroke-width:0.150921" width="2" height="18" x="0" y="0"/>
        <rect style="fill:#114311;fill-opacity:1;stroke-width:0.170341" width="2.3" height="18" x="2.2" y="0"/>
        <rect style="fill:#13289f;fill-opacity:1;stroke-width:0.203701" width="2.7" height="18" x="4.7" y="0"/>
        <rect style="fill:#2a7aa7;fill-opacity:1;stroke-width:0.203701" width="4.7" height="18" x="7.6" y="0"/>
        <rect style="fill:#8a1117;fill-opacity:1;stroke-width:0.203701" width="5.6" height="18" x="12.5" y="0"/>
        <rect style="fill:#6c411b;fill-opacity:1;stroke-width:0.203701" width="4.1" height="18" x="18.3" y="0"/>
        <rect style="fill:#3c1671;fill-opacity:1;stroke-width:0.203701" width="4.8" height="18" x="22.6" y="0"/>
      </g>
      <g id="pokeball">
        <circle fill="#fff" stroke="#000" stroke-width=".4" cx="0" cy="0" r="5"/>
        <path style="fill:#ad0a0a;fill-opacity:1;stroke-width:0.145575" stroke="#000" stroke-width=".4" d="m -5 0 a 5 5 180 0 1 10,0 0 0 1 5,-0.166732 5,5 0 0 1 2.716704,4.457561 l -5.169209,0.127681 z"/>
        <path stroke="#000" stroke-width=".4" d="m -5 0 l 10 0"/>
        <circle fill="#000" cx="0" cy="0" r="1.5"/>
        <circle fill="#fff" cx="0" cy="0" r="1"/>
      </g>
      <g id="books">
        <rect style="fill:#a16580;fill-opacity:1;stroke-width:0.178394" width="6.5" height="18" x="43" y="-6"/>
        <rect style="fill:#624d3c;fill-opacity:1;stroke-width:0.178394" width="7" height="13" x="36" y="-1"/>
        <rect style="fill:#65a199;fill-opacity:1;stroke-width:0.119441" width="5" height="12" x="31" y="0"/>
        <rect style="fill:#a19d65;fill-opacity:1;stroke-width:0.178394" width="3.5" height="18" x="27.5" y="-6"/>
        <rect style="fill:#a16575;fill-opacity:1;stroke-width:0.178394" width="4.5" height="15" x="23" y="-3"/>
        <rect style="fill:#657ba1;fill-opacity:1;stroke-width:0.178394" width="7" height="10" x="16" y="2"/>
        <rect style="fill:#a19765;fill-opacity:1;stroke-width:0.241404" width="9" height="14.5" x="7" y="-2.5"/>
        <rect style="fill:#a18965;fill-opacity:1;stroke-width:0.178394" width="7" height="17" x="0" y="-5"/>
      </g>
    </g>
  </defs>
  <rect style="fill:#02343a;stroke-width:0.264999;fill-opacity:1" id="rect1" width="219.01471" height="90.375458" x="-4.3730059" y="-3.2797544"/>
  <rect style="fill:#1a1917;fill-opacity:1;stroke-width:0.264999" id="rect2" width="217.19264" height="27.695705" x="-2.9153376" y="86.731285"/>
  <use href="#desk" x="75" y="57"/>
  <use href="#lamp" x="190" y="38"/>
  <use href="#walllight" x="87" y="26"/>
  <use href="#screen" x="146" y="57"/>
  <use href="#screen" x="97" y="57"/>
  <use href="#bookshelf" x="60" y="32"/>
  <use href="#triforce" x="50" y="30"/>
  <use href="#hpbooks" x="5" y="19"/>
  <use href="#pokeball" x="20" y="57" transform="rotate(40,20,57)"/>
  <use href="#books" x="0" y="75"/>
</svg>