<svg  viewBox="0 0 210 297" xmlns="http://www.w3.org/2000/svg" xmlns:xlink="http://www.w3.org/1999/xlink">
  <defs id="defs1">
    <linearGradient id="linearGradient35">
      <stop stopColor="#75676e" stopOpacity="1" offset="0.41640377" id="stop35"/>
      <stop stopColor="#61666c" stopOpacity="1" offset="0.46372241" id="stop36"/>
    </linearGradient>
    <linearGradient id="linearGradient33">
      <stop stopColor="#495b65" stopOpacity="1" offset="0.42271295" id="stop33"/>
      <stop stopColor="#4a6f78" stopOpacity="1" offset="0.45425865" id="stop34"/>
    </linearGradient>
    <linearGradient id="linearGradient31">
      <stop stopColor="#32555c" stopOpacity="1" offset="0.4384858" id="stop31"/>
      <stop stopColor="#386168" stopOpacity="1" offset="0.47318611" id="stop32"/>
    </linearGradient>
    <linearGradient id="linearGradient29">
      <stop stopColor="#274e57" stopOpacity="1" offset="0.38485804" id="stop29"/>
      <stop stopColor="#3b666f" stopOpacity="1" offset="0.56782335" id="stop30"/>
    </linearGradient>
    <linearGradient id="linearGradient25">
      <stop stopColor="#2a4951" stopOpacity="1" offset="0.46372241" id="stop25"/>
      <stop stopColor="#265562" stopOpacity="1" offset="0.53943217" id="stop26"/>
    </linearGradient>
    <linearGradient id="linearGradient21">
      <stop stopColor="#24292d" stopOpacity="1" offset="0.36593059" id="stop23"/>
      <stop stopColor="#15333a" stopOpacity="1" offset="0.66561514" id="stop24"/>
    </linearGradient>
    <linearGradient id="linearGradient10">
      <stop stopColor="#8c6469" stopOpacity="1" offset="0.4258675" id="stop10"/>
      <stop stopColor="#8c6469" stopOpacity="0" offset="0.51419562" id="stop11"/>
    </linearGradient>
    <linearGradient id="linearGradient6">
      <stop stopColor="#fff1d9" stopOpacity="0" offset="0.03097314" id="stop4"/>
      <stop stopColor="#ffaa1c" stopOpacity="0" offset="0.34241185" id="stop5"/>
      <stop stopColor="#a4a4a4" stopOpacity="0" offset="0.63406938" id="stop6"/>
    </linearGradient>
    <linearGradient id="linearGradient1">
      <stop stopColor="#000000" stopOpacity="0" offset="0.44794953" id="stop1"/>
      <stop stopColor="#6e6268" stopOpacity="1" offset="0.45741323" id="stop3"/>
      <stop stopColor="#517079" stopOpacity="1" offset="0.5503155" id="stop2"/>
    </linearGradient>
    <linearGradient id="linearGradient27">
      <stop stopColor="#a8bcc5" stopOpacity="1" offset="0.35389534" id="stop27"/>
      <stop stopColor="#eaad7e" stopOpacity="1" offset="0.42271295" id="stop7"/>
      <stop stopColor="#9d6b60" stopOpacity="1" offset="0.46822518" id="stop8"/>
      <stop stopColor="#fe9f3b" stopOpacity="1" offset="0.49796459" id="stop28"/>
    </linearGradient>
    <linearGradient id="linearGradient20">
      <stop stopColor="#fff1d9" stopOpacity="1" offset="0.13507408" id="stop20"/>
      <stop stopColor="#e49400" stopOpacity="0" offset="0.52853173" id="stop22"/>
      <stop stopColor="#7d5200" stopOpacity="0" offset="1" id="stop21"/>
    </linearGradient>
    <radialGradient xlink:href="#linearGradient20" id="radialGradient21" cx="162.53006" cy="67.23497" fx="162.53006" fy="67.23497" r="31.339876" gradientTransform="matrix(0.66279069,0,0,0.66279072,-43.221571,7.1845267)" gradientUnits="userSpaceOnUse"/>
    <linearGradient xlink:href="#linearGradient27" id="linearGradient28" x1="105.31656" y1="-52.293854" x2="105.31656" y2="160.52576" gradientUnits="userSpaceOnUse"/>
    <linearGradient xlink:href="#linearGradient1" id="linearGradient2" x1="100.94356" y1="-81.26503" x2="100.94356" y2="229.2184" gradientUnits="userSpaceOnUse" gradientTransform="translate(-0.36441718,-6.9239265)"/>
    <radialGradient xlink:href="#linearGradient6" id="radialGradient21-4" cx="162.53006" cy="67.23497" fx="162.53006" fy="67.23497" r="31.339876" gradientTransform="matrix(0.66279069,0,0,0.66279072,-43.629802,6.7207481)" gradientUnits="userSpaceOnUse"/>
    <linearGradient xlink:href="#linearGradient10" id="linearGradient11" x1="60.66061" y1="2.1574092" x2="60.66061" y2="125.84245" gradientUnits="userSpaceOnUse" gradientTransform="matrix(0.94843919,0,0,0.72195,0.8501028,12.784444)"/>
    <linearGradient xlink:href="#linearGradient21" id="linearGradient24" x1="181.70155" y1="40.194717" x2="181.70155" y2="106.92934" gradientUnits="userSpaceOnUse"/>
    <linearGradient xlink:href="#linearGradient25" id="linearGradient26" x1="163.8833" y1="26.304039" x2="163.8833" y2="133.09491" gradientUnits="userSpaceOnUse"/>
    <linearGradient xlink:href="#linearGradient29" id="linearGradient30" x1="149.32417" y1="9.3211403" x2="149.32417" y2="140.11601" gradientUnits="userSpaceOnUse"/>
    <linearGradient xlink:href="#linearGradient31" id="linearGradient32" x1="142.80434" y1="-4.5303802" x2="142.80434" y2="138.05113" gradientUnits="userSpaceOnUse"/>
    <linearGradient xlink:href="#linearGradient33" id="linearGradient34" x1="117.25881" y1="-31.537798" x2="117.25881" y2="165.25275" gradientUnits="userSpaceOnUse"/>
    <linearGradient xlink:href="#linearGradient35" id="linearGradient36" x1="147.85544" y1="-5.1289215" x2="147.85544" y2="131.72339" gradientUnits="userSpaceOnUse"/>
  </defs>
  <g id="layer1">
    <rect fill="url(#linearGradient28)" fillOpacity="1" strokeWidth="0.265" strokeDasharray="none" id="rect3" width="212.81961" height="109.68958" x="-1.0932518" y="-0.72883457"/>
    <ellipse fill="url(#radialGradient21)" stroke="none" strokeWidth="0.17217" strokeDasharray="none" strokeOpacity="1" id="path19" cx="64.501839" cy="51.747242" rx="20.771778" ry="20.77178"/>
    <rect fill="url(#linearGradient2)" strokeWidth="0.264999" id="rect1" width="310.48343" height="48.103065" x="-54.662575" y="43.001225"/>
    <ellipse fill="url(#radialGradient21-4)" stroke="none" strokeWidth="0.17217" strokeDasharray="none" strokeOpacity="1" id="path19-5" cx="64.093613" cy="51.283463" rx="20.771778" ry="20.77178"/>
    <path fill="url(#linearGradient11)" strokeWidth="0.219282" d="m 4.4791919,52.511181 c 0.5515961,-0.659883 0.9902714,-1.955442 2.0737653,-2.367819 0.8264374,-0.314542 1.7017401,1.173862 2.4193926,1.447 0.3812256,0.145096 1.7625622,-0.144647 2.0737652,-0.26309 0.01146,-0.0043 3.499057,-0.04949 3.629089,0 0.201306,0.07662 0.317135,0.186473 0.518442,0.26309 0.101988,0.03882 0.402288,0 0.51844,0 0.207573,0 0.682357,0.06916 0.864069,0 0.620229,-0.236058 1.114493,-0.687266 1.728138,-0.920817 0.541725,-0.206181 3.428511,0.182439 4.14753,0 0.07729,-0.01961 0.09553,-0.111938 0.172814,-0.131545 0.155533,-0.03946 0.362909,0.03946 0.518442,0 0.483268,-0.122623 1.114998,-0.227049 1.555323,-0.394638 0.348717,-0.132721 0.670589,-0.301695 1.036883,-0.394636 0.855129,-0.216975 1.60991,0.283867 2.246578,0.526181 0.36867,0.140315 1.013842,-0.140314 1.38251,0 0.498495,0.189727 0.706799,0.03585 1.209697,0.131545 0.124961,0.02378 0.220665,0.107766 0.345629,0.131548 0.373578,0.07109 0.845604,-0.09238 1.209695,0 0.07729,0.01961 0.09553,0.111935 0.172813,0.131545 0.902874,0.229087 1.919439,0.228623 2.765021,0.657727 0.610889,0.310003 1.283012,0.68563 1.900952,0.920819 0.809341,0.308034 1.590661,-0.622846 2.246578,-0.789274 0.70555,-0.17902 3.739622,-0.08414 3.801903,-0.131545 0.04074,-0.03101 -0.04073,-0.100539 0,-0.131546 0.11521,-0.0877 0.576045,0.0877 0.691255,0 0.04074,-0.03101 -0.04074,-0.10054 0,-0.131546 0.08147,-0.06201 0.264163,0.06201 0.345629,0 0.0864,-0.06577 0.0864,-0.197318 0.172813,-0.26309 0.01854,-0.01411 1.717283,0 1.900952,0 0.482483,0 2.268383,-0.123248 2.592205,0 0.24169,0.09199 1.041618,0.261289 1.38251,0.131545 0.135903,-0.05172 0.611805,-0.202612 0.691256,-0.26309 0.04074,-0.03101 -0.04073,-0.100542 0,-0.131545 0.08146,-0.06201 0.242582,0.03922 0.345627,0 0.07287,-0.02774 0.09995,-0.103814 0.172815,-0.131548 0.29123,-0.11084 0.732608,-0.01574 1.036882,-0.131545 0.364876,-0.138872 2.918007,-1.593638 3.110647,-1.447 0.04073,0.03101 -0.02576,0.09233 0,0.131547 0.07287,0.110928 0.255252,0.159897 0.345628,0.263089 0.405955,0.46352 1.073552,1.855594 1.728137,2.104729 0.389117,0.148096 1.792478,0.304376 2.246578,0.131545 0.357828,-0.136189 0.683281,-0.260055 1.036884,-0.394637 0.219035,-0.08336 0.786616,0 1.036883,0 0.725086,0 5.598342,0.105551 5.875667,0 0.07287,-0.02773 0.09995,-0.103811 0.172816,-0.131545 0.104338,-0.03972 0.438554,0.06081 0.518439,0 0.04074,-0.03101 -0.04073,-0.10054 0,-0.131545 0.08146,-0.06201 0.242583,0.03922 0.345629,0 0.589448,-0.224345 1.459376,-1.2862 2.419392,-0.920819 0.563042,0.214293 0.824354,1.15368 1.036884,1.315455 0.07945,0.06048 0.55535,0.211367 0.691255,0.263091 0.295606,0.112508 4.416213,0.06337 4.665971,0 0.07729,-0.01961 0.09995,-0.103813 0.172813,-0.131545 0.224978,-0.08563 0.571644,0.04553 1.036884,-0.131546 0.05152,-0.01961 0.13208,0.03101 0.172813,0 0.04074,-0.03101 -0.04073,-0.10054 0,-0.131546 0.04574,-0.03482 0.447282,0 0.518442,0 0.436823,0 0.679233,0.0046 1.036882,-0.131545 0.327957,-0.124819 1.306051,0.189746 1.555323,0 0.04074,-0.03101 -0.04073,-0.10054 0,-0.131545 0.05761,-0.04385 0.460838,-0.0877 0.518442,-0.131545 0.04073,-0.03101 -0.04074,-0.100542 0,-0.131545 0.0094,-0.0071 0.509076,-0.255963 0.518442,-0.263093 0.114041,-0.08681 0.244138,-0.421782 0.51844,-0.526181 0.102662,-0.03907 0.761408,-0.03907 0.864071,0 0.07286,0.02773 0.09995,0.103813 0.172813,0.131545 0.103046,0.03922 0.26416,-0.06201 0.345626,0 0.04074,0.03101 -0.02576,0.09233 0,0.131546 0.116366,0.177155 0.490683,0.318298 0.691255,0.394635 0.635004,0.241683 3.687282,0.131548 4.665973,0.131548 0.422645,0 1.082598,0.311463 1.555323,0.131545 0.421238,-0.160324 0.788458,-0.365861 1.209696,-0.526183 0.123033,-0.04682 2.237059,-0.200941 2.419398,-0.131545 0.870506,0.331316 1.194701,0.394635 2.246577,0.394635 0.334685,0 1.089634,0.111468 1.382512,0 0.495578,-0.188616 1.05974,-0.206017 1.55531,-0.394635 0.0695,-0.02645 2.69555,-0.02645 2.76503,0 0.20737,0.07893 0.31106,0.31571 0.51844,0.394635 0.10304,0.03922 0.26416,-0.06201 0.34562,0 0.35756,0.272173 -0.54639,-0.01064 0.17282,0.263093 0.37433,0.142467 1.0281,-0.0033 1.38251,0.131545 0.40183,0.152938 0.80786,0.241698 1.20969,0.394636 0.29779,0.113337 1.82783,0 2.24658,0 1.09126,0 2.20599,-0.08122 3.11065,0.263091 0.10434,0.03971 0.43856,-0.06081 0.51844,0 0.0407,0.03101 -0.0407,0.100541 0,0.131545 0.13793,0.104996 0.68276,-0.069 0.86408,0 0.0728,0.02774 0.0999,0.103813 0.1728,0.131547 0.32644,0.124242 2.07455,-0.130955 2.24659,0 0.0407,0.03101 -0.0408,0.100539 0,0.131545 0.0864,0.06577 0.25922,0.06577 0.34562,0.131545 0.40494,0.308234 0.4681,2.296329 0.34563,2.762455 -0.25009,0.951872 -0.17282,-0.601199 -0.17282,0.657727 0,1.153952 0.29962,2.604458 -0.17281,3.683275 -0.22414,0.511854 0.17227,1.185572 0,1.710091 -0.0312,0.09512 -0.14157,0.167969 -0.17281,0.263092 -0.20312,0.61846 0,2.430996 0,3.15709 0,0.181719 0.0761,0.48405 0,0.657729 -0.18029,0.411693 -0.34563,1.15535 -0.34563,1.578544 0,0.598833 0.0815,0.0075 -0.17281,0.394637 -0.16322,0.248487 0.17204,1.579139 0,1.710092 -0.0799,0.06081 -0.4141,-0.03972 -0.51845,0 -1.36644,0.520071 -4.60269,0.263091 -6.22128,0.263091 -1.35974,0 -2.79645,-0.102844 -4.14754,0 -2.25561,0.171697 -4.45516,0.26309 -6.739736,0.26309 -2.25554,0 -4.870524,0.168593 -7.085361,0 -0.292269,-0.02225 -0.5718,-0.109297 -0.864069,-0.131545 -1.688451,-0.128525 -3.487209,0 -5.184413,0 -1.134768,0 -2.326791,-0.07816 -3.456275,0 -1.959196,0.135576 -3.899087,0.131545 -5.875668,0.131545 -1.021186,0 -2.093389,0.06453 -3.110649,0 -0.69837,-0.0443 -1.375854,-0.214795 -2.073766,-0.26309 -1.674591,-0.115881 -3.33823,-0.278839 -5.011597,-0.394636 -0.959037,-0.06637 -1.975073,0 -2.937837,0 -2.937834,0 -5.875668,0 -8.813501,0 -1.190648,0 -2.444526,0.08197 -3.629089,0 -0.923384,-0.0639 -1.842067,-0.192837 -2.765021,-0.263091 -1.407182,-0.107116 -2.905148,0 -4.320344,0 -3.28346,0 -6.566922,0 -9.850383,0 -4.855597,0 -9.659048,-0.131547 -14.516357,-0.131547 -1.728137,0 -3.456275,0 -5.184412,0 -0.707801,0 -1.543409,-0.07646 -2.246579,0 -0.180331,0.01961 -0.338758,0.108751 -0.518442,0.131547 -0.439419,0.05575 -0.9508517,-0.08214 -1.38251,0 -1.477944,0.281252 -5.4199171,0.510275 -6.9125505,0.131546 -0.2623306,-0.06656 -0.8904754,-0.0201 -1.0368826,-0.131546 -0.040733,-0.03101 0.040733,-0.100541 0,-0.131547 -0.081465,-0.06201 -0.2641624,0.06201 -0.3456276,0 -0.080842,-0.06153 -0.1164098,-0.92356 -0.1728137,-1.052364 -0.0257615,-0.05883 -0.14705225,-0.07272 -0.17281381,-0.131545 -0.0728647,-0.166394 0.0558847,-0.356025 0,-0.526182 -0.10077806,-0.306848 -0.26459834,-0.612422 -0.34562753,-0.920817 -0.0885235,-0.33692 0.0742344,-0.713322 0,-1.052364 -0.13412208,-0.612561 -0.21150544,-1.229077 -0.34562754,-1.841638 -0.0743466,-0.339554 0.0886377,-0.715009 0,-1.052364 -0.0357249,-0.135967 -0.14286655,-0.257862 -0.17281374,-0.394635 -0.13019014,-0.594605 0.1551854,-1.251004 0,-1.841638 -0.44911692,-1.709335 -0.17281375,-3.634531 -0.17281375,-5.393366 0,-0.366855 -0.0244707,-0.620473 0.17281375,-0.920817 0.23041835,-0.350787 -0.23041834,-0.964667 0,-1.315456 0.0728647,-0.110929 0.19989815,-0.207625 0.34562751,-0.26309 0.1592515,-0.06061 2.47905451,-0.02154 2.59220661,0 0.1249619,0.02378 0.2206655,0.107765 0.3456274,0.131545 0.6994416,0.133103 1.6880794,0 2.4193928,0" id="path10"/>
    <path fill="url(#linearGradient36)" fillOpacity="1" strokeWidth="0.264999" d="m 216.28159,56.484662 c -1.39801,-0.580832 -2.79072,-0.990978 -4.19079,-1.457669 -1.5832,-0.527732 -2.29559,1.785726 -3.82638,1.275461 -0.0815,-0.02716 -0.10073,-0.155046 -0.18221,-0.182208 -0.11524,-0.03842 -0.24658,0.02946 -0.36442,0 -0.35134,-0.08784 -0.62841,-0.358203 -0.91104,-0.546626 -0.53,-0.353333 -1.23302,-0.53248 -1.82209,-0.728835 -0.38264,-0.127547 -0.89282,0.127545 -1.27546,0 -0.49825,-0.166081 -0.95942,-0.380545 -1.45767,-0.546626 -0.16399,-0.05466 -0.38264,0.05466 -0.54662,0 -0.0815,-0.02716 -0.10073,-0.155046 -0.18221,-0.182208 -0.26684,-0.08895 -0.63791,0.06828 -0.91104,0 -1.03899,-0.259747 -1.95604,-0.728835 -3.09755,-0.728835 -0.69397,0 -1.56443,-0.128828 -2.1865,0.182208 -0.51904,0.259522 -0.6143,0.690655 -1.27546,0.911043 -0.50178,0.167261 -3.11659,0.105518 -3.64417,0 -0.36445,-0.07289 -0.72881,-0.291526 -1.09326,-0.364416 -0.29778,-0.05956 -0.61643,0.07365 -0.91104,0 -0.43836,-0.109591 -0.84333,-0.220374 -1.27546,-0.364419 -0.42533,-0.141777 -1.0146,-0.07144 -1.45767,-0.182208 -0.13175,-0.03294 -0.23124,-0.155572 -0.36442,-0.182208 -0.17867,-0.03573 -0.36985,0.04419 -0.54662,0 -0.0833,-0.02082 -0.10072,-0.155046 -0.18221,-0.182208 -0.31693,-0.105642 -2.75505,-0.114165 -3.09755,0 -0.0815,0.02716 -0.10072,0.155046 -0.1822,0.182208 -0.30176,0.100584 -1.34285,0.09901 -1.63988,0 -1.27852,-0.426172 -3.24384,0.133446 -4.1908,-0.182208 -0.0815,-0.02716 -0.10538,-0.143795 -0.18221,-0.18221 -0.24445,-0.122222 -1.49524,-0.291156 -1.82209,-0.182208 -2.00833,0.669446 -1.69595,2.487856 -2.91533,3.097546 -0.19308,0.09654 -0.52238,-0.06882 -0.72883,0 -0.89745,0.299151 -1.80047,0.02677 -2.73313,0.18221 -1.8247,0.304115 -3.71751,0.86845 -5.64847,0.546624 -0.99144,-0.165237 -3.2475,-1.168228 -4.1908,-1.639877 -0.42531,-0.212653 -0.8007,-0.610145 -1.27546,-0.728834 -0.62998,-0.157493 -1.41774,-0.253349 -2.00429,-0.546627 -0.27795,-0.138975 -0.45709,-0.410752 -0.72884,-0.546624 -0.53339,-0.2667 -3.66568,-0.02151 -3.82638,-0.18221 -0.0729,-0.07293 -0.0987,-0.231548 -0.36442,-0.364416 -0.25901,-0.129508 -1.39098,-0.08297 -1.63987,0 -0.24738,0.08246 -0.42628,0.288777 -0.72884,0.364416 -0.11784,0.02946 -0.24917,-0.03841 -0.36441,0 -0.0815,0.02716 -0.10073,0.155048 -0.18221,0.18221 -0.23048,0.07682 -0.49314,-0.05892 -0.72884,0 -0.61631,0.154078 -1.20577,0.392547 -1.82208,0.546624 -0.33641,0.0841 -0.76526,-0.109331 -1.09325,0 -1.79491,0.598303 -3.11947,-0.371723 -4.73743,-0.911042 -0.32179,-0.107262 -2.96878,-0.103656 -3.27975,0 -0.33176,0.110585 -0.57929,0.253833 -0.91105,0.364418 -0.21081,0.07027 -0.53303,-0.0979 -0.72883,0 -0.65244,0.326218 -1.35705,0.843963 -2.0043,1.275459 -0.42688,0.284591 -0.7958,1.115576 -1.27545,1.275461 -0.72035,0.240114 -2.84766,0.381338 -3.64418,0.182208 -2.03774,-0.509437 -3.7807,-2.049804 -5.83067,-2.733128 -0.17286,-0.05762 -0.37377,0.05762 -0.54663,0 -0.35397,-0.117991 -0.69443,-0.446921 -1.09325,-0.546626 -0.3409,-0.08523 -0.7627,-0.07202 -1.09325,-0.182208 -0.0815,-0.02716 -0.10072,-0.155049 -0.18221,-0.182208 -0.58504,-0.195014 -1.88915,-0.05757 -2.36871,0.182208 -0.2417,0.120848 -0.65251,-0.08618 -0.91104,0 -0.42123,0.140409 -0.72138,0.422666 -1.09325,0.546624 -0.11524,0.03842 -0.24918,-0.03841 -0.36442,0 -0.0815,0.02716 -0.10072,0.155048 -0.18221,0.18221 -0.37304,0.124347 -0.89089,0.08606 -1.27546,0.182208 -0.33954,0.08489 -0.62072,0.449853 -0.91104,0.546627 -0.43899,0.146328 -0.66675,0.151164 -1.09325,0.364416 -0.4373,0.218651 -1.20258,-0.218649 -1.63988,0 -0.89702,0.448511 -1.5478,1.305504 -2.55092,1.639877 -0.49197,0.163988 -1.14792,-0.163986 -1.63988,0 -1.42228,0.474093 -4.74101,0.18221 -6.377299,0.18221 -0.427167,0 -1.69486,-0.336925 -2.004296,-0.18221 -0.650793,0.325397 -0.908336,1.091898 -1.639877,1.457669 -0.574648,0.287324 -4.414131,-0.173982 -5.284049,0 -0.133173,0.02663 -0.231243,0.155575 -0.364416,0.182208 -0.297786,0.05956 -0.616429,-0.07365 -0.911045,0 -0.544785,0.136196 -1.096989,0.228695 -1.639877,0.364418 -0.263509,0.06588 -0.476641,0.263541 -0.728834,0.364416 -0.696045,0.278421 -1.479601,0.369901 -2.186504,0.546627 -0.243985,0.061 -2.452954,-0.09796 -2.550919,0 -0.01823,0.01823 -0.01823,0.528404 0,0.546626 0.04295,0.04295 0.139261,-0.04295 0.182208,0 0.101751,0.101751 0.266229,0.541901 0.546626,0.728835 0.848839,0.565893 1.96623,1.038182 2.915338,1.275458 1.497053,0.374264 2.920201,2.850234 3.644173,4.008591 0.520287,0.832458 1.219385,1.59381 1.822085,2.368711 0.983982,1.265119 2.612876,4.586192 4.008588,5.284049 0.530865,0.26543 1.426125,0.402082 2.004295,0.546624 2.345071,0.586269 4.864709,0.915268 7.288343,0.728835 0.36836,-0.02833 0.72475,-0.155885 1.09325,-0.182208 0.90873,-0.06491 1.8244,0.06491 2.73313,0 1.3425,-0.09589 2.66249,-0.467442 4.00859,-0.546627 0.54568,-0.0321 1.09401,0.02873 1.63988,0 4.13011,-0.217373 8.27181,-0.883234 12.39018,-1.275458 5.07783,-0.483603 -1.08231,0.180644 4.00859,-0.546627 3.13467,-0.44781 6.32214,-0.578704 9.47485,-0.728834 2.55465,-0.12165 5.09914,-0.425024 7.65276,-0.546627 6.06563,-0.288837 12.15757,0.182211 18.22086,0.182211 1.69057,0 3.4142,0.09376 5.10184,0 0.54914,-0.03051 1.09083,-0.149913 1.63988,-0.182211 2.60673,-0.153336 5.22889,-0.02891 7.83496,-0.182208 1.46898,-0.08641 2.90682,-0.448878 4.37301,-0.546626 1.33004,-0.08867 2.67903,0.09497 4.00859,0 0.42838,-0.0306 0.84708,-0.151609 1.27546,-0.182208 3.33349,-0.238106 6.69854,0.119877 10.02147,-0.182208 2.60398,-0.236725 4.89494,-1.288976 7.28834,-2.186503 0.75967,-0.284875 1.5936,-0.470464 2.36872,-0.728835 1.01393,-0.337979 2.07209,-0.836888 3.09754,-1.09325 0.55909,-0.139772 1.12412,-0.192498 1.63988,-0.364419 0.23464,-0.07821 0.49419,-0.468413 0.72883,-0.546624 0.43296,-0.144322 0.90993,-0.181088 1.27546,-0.546626 0.096,-0.09603 0.10688,-0.251418 0.18221,-0.364419 0.18425,-0.27637 0.5536,-0.196157 0.72884,-0.546624 0.12439,-0.248779 0.11002,-0.440081 0.1822,-0.728834 -0.10982,-0.329787 0.29517,-0.338876 0.36442,-0.546627 0.1553,-0.465891 0.2044,-0.977603 0.36442,-1.457669 0.20586,-0.617585 -0.26883,-2.013251 0,-2.550919 0.21899,-0.437975 0.48589,-0.850307 0.72883,-1.275461 z" id="path20"/>
    <path fill="url(#linearGradient34)" fillOpacity="1" strokeWidth="0.264999" d="m 19.678528,56.302454 c 1.561492,0.27644 3.156947,0.182208 4.737423,0.182208 0.393928,0 0.895584,0.09497 1.27546,0 1.388389,-0.347096 2.802952,-0.564081 4.190797,-0.911042 0.68599,-0.171498 1.492332,0.138835 2.186503,0 2.140024,-0.428006 4.543544,-0.182208 6.741719,-0.182208 1.08626,0 5.69406,0.227745 6.377299,0 0.459211,-0.153072 0.817063,-0.06761 1.275461,-0.182211 1.217142,-0.304284 2.428111,-0.607025 3.644173,-0.911042 0.23569,-0.05892 0.493143,0.05892 0.728834,0 0.978278,-0.24457 1.952686,-0.407951 2.915335,-0.728835 0.17286,-0.05762 0.369859,0.04419 0.546627,0 0.547235,-0.136808 1.092594,-0.227594 1.639877,-0.364416 0.406532,-0.101634 4.827476,-0.09132 5.284049,0 0.76277,0.152554 1.578263,0.546624 2.368711,0.546624 0.736545,0 1.650214,0.143701 2.368712,0 0.133175,-0.02663 0.231245,-0.155572 0.364418,-0.182208 0.550831,-0.110167 1.260261,0 1.822085,0 1.518407,0 3.036811,0 4.555215,0 0.963689,0 2.155854,-0.188338 3.097546,0 0.478393,0.09568 0.959654,0.264814 1.457669,0.364419 0.635812,0.127161 1.375817,-0.15712 2.004295,0 0.48128,0.120319 0.973106,0.267504 1.457669,0.364416 0.401442,0.08029 0.877776,-0.09942 1.275458,0 1.099796,0.274949 2.14476,0.809503 3.279757,1.093253 0.912609,0.22815 2.357829,-0.392973 3.279754,-0.546627 0.781515,-0.130254 1.575096,-0.251044 2.368711,-0.364418 0.360754,-0.05154 0.735912,0.07147 1.093253,0 0.422116,-0.08442 0.853342,-0.279993 1.275458,-0.364416 0.727496,-0.1455 1.667214,0.233833 2.368712,0 0.08149,-0.02716 0.100724,-0.155046 0.18221,-0.182208 0.517591,-0.172532 1.338138,0.241972 1.822085,0 0.07683,-0.03842 0.105384,-0.143796 0.182208,-0.182211 0.108649,-0.05432 0.278524,0.0859 0.364419,0 0.04295,-0.04294 -0.04295,-0.139261 0,-0.182208 0.08589,-0.08589 0.242943,0 0.364416,0 0.54978,0 1.300136,-0.130487 1.822084,0 1.94939,0.48735 3.95205,0.364419 6.01288,0.364419 0.55147,0 1.89073,-0.238993 2.36872,0 0.64623,0.323117 1.46696,0.306776 2.1865,0.546624 0.31044,0.103478 0.80307,-0.14509 1.09325,0 0.44346,0.221731 0.92316,0.364418 1.45767,0.364418 0.56168,0 1.4832,0.173699 2.00429,0 0.82971,-0.276569 5.2724,-0.611245 6.01289,-0.364418 2.05147,0.683826 4.54449,0.364418 6.74172,0.364418 0.81419,0 1.75189,0.13317 2.55091,0 1.15273,-0.192122 3.02116,-0.416136 4.1908,-0.182208 0.13318,0.02663 0.23125,0.155573 0.36442,0.182208 1.15914,0.231828 2.49917,-0.28625 3.64417,0 0.90656,0.22664 1.79144,0.182208 2.73313,0.182208 0.67168,0 1.73407,-0.211547 2.36871,0 0.0815,0.02716 0.10072,0.155046 0.18221,0.182208 0.29009,0.0967 1.88406,-0.120232 2.0043,0 0.0429,0.04295 -0.0543,0.155049 0,0.182211 0.29153,0.145767 0.80171,-0.145767 1.09325,0 0.0768,0.03841 0.10538,0.143796 0.18221,0.182208 0.17726,0.08863 4.43898,0.05969 4.73742,0 0.18833,-0.03767 0.35829,-0.144542 0.54662,-0.182208 1.11794,-0.223589 2.83205,0 4.0086,0 1.28028,0 2.75055,-0.209675 4.00858,0 0.6751,0.112516 1.33215,0.229986 2.0043,0.364416 0.4672,0.09344 0.99046,-0.09344 1.45767,0 0.13317,0.02663 0.23124,0.155575 0.36441,0.182208 0.75151,0.150302 1.6259,-0.185703 2.36872,0 0.13175,0.03294 0.23266,0.14927 0.36441,0.18221 1.20043,0.300107 2.62595,-0.300109 3.82638,0 0.13176,0.03294 0.23558,0.139261 0.36442,0.182208 0.27948,0.09316 4.94906,0.111662 5.28405,0 0.23374,-0.07791 0.49509,-0.286504 0.72883,-0.364418 0.56569,-0.188561 1.20867,-0.211061 1.82209,-0.364416 0.55856,-0.139642 1.08077,-0.406847 1.63988,-0.546627 0.3409,-0.08522 0.76269,-0.07202 1.09325,-0.182208 0.0815,-0.02716 0.10072,-0.155046 0.18221,-0.182208 0.26684,-0.08895 0.63791,0.06828 0.91104,0 0.46979,-0.117448 2.09793,-0.408704 2.55092,-0.18221 0.78105,0.390525 2.20079,0.869063 3.09755,1.093253 0.38457,0.09614 0.90242,0.05786 1.27545,0.182208 0.0815,0.02716 0.10073,0.155046 0.18222,0.182208 0.27625,0.09209 0.80363,0 1.09325,0 0.94758,0 5.20699,-0.207894 5.83067,0 0.49005,0.163348 0.95767,0.421626 1.45767,0.546626 0.11785,0.02946 0.24918,-0.03841 0.36442,0 0.0815,0.02716 0.10072,0.155046 0.1822,0.182208 0.11524,0.03842 0.24918,-0.03841 0.36442,0 0.0815,0.02716 0.10072,0.155049 0.18221,0.182208 0.11524,0.03842 0.24918,-0.03841 0.36442,0 0.37165,0.123883 0.55685,0.551741 0.91104,0.728835 0.4988,0.249401 0.98205,0.491024 1.45767,0.728834 0.10865,0.05432 0.24918,-0.03841 0.36442,0 0.64324,0.214416 1.17614,0.331314 1.82208,0.546627 0.21865,0.07288 0.51019,-0.07288 0.72884,0 0.84749,0.282498 1.70342,0.446336 2.55092,0.728834 0.33365,0.111218 1.76338,0.06175 2.00429,0.182208 0.45031,0.225155 -0.0629,0.182211 0.36442,0.182211 0.45507,0 0.66244,0.03861 1.09325,0.182208 0.32797,0.109325 0.76528,-0.109326 1.09325,0 0.0815,0.02716 0.10072,0.155045 0.18221,0.182207 0.15773,0.05258 1.6847,0.137391 1.82209,0 0.0786,-0.07864 0.0623,-0.333269 0.36441,-0.182207 0.63644,0.318217 0.77131,2.241293 0.54663,2.915337 -0.53079,1.592374 -1.74221,2.806753 -2.36871,4.373005 -0.21758,0.543956 -0.22876,1.097248 -0.36442,1.639876 -0.4532,1.812785 -0.92221,3.672105 -1.63988,5.46626 -0.17345,0.433626 -0.30729,1.058786 -0.54662,1.457669 -0.35329,0.588812 -1.12087,1.068412 -1.63988,1.457667 -0.27486,0.206147 -0.45397,0.522689 -0.72883,0.728834 -0.92809,0.696063 -2.72697,1.492263 -3.82638,1.822088 -3.76592,1.129773 -7.85028,0.362958 -11.66135,0 -4.70276,-0.447882 0.69132,0.02215 -4.00859,-0.182208 -3.64421,-0.158446 -7.29609,-0.620131 -10.93252,-0.911046 -4.42177,-0.353739 -8.87002,-0.908616 -13.30122,-1.09325 -0.72821,-0.03034 -1.45831,0.03034 -2.18651,0 -1.46145,-0.06089 -2.91145,-0.305956 -4.373,-0.364418 -7.64926,-0.30597 -15.29354,-0.364416 -22.95829,-0.364416 -4.58468,0 1.11832,-0.07988 -2.55092,0.182208 -1.38997,0.09928 -2.80033,-0.0927 -4.19079,0 -0.42852,0.02857 -0.84695,0.15364 -1.27547,0.182208 -1.99554,0.133037 -4.01581,-0.110948 -6.01288,0 -0.54914,0.03051 -1.09083,0.149912 -1.63988,0.18221 -3.45025,0.202957 -6.9349,-0.191722 -10.38588,0 -1.63959,0.09109 -3.27811,0.273219 -4.91964,0.364416 -1.15221,0.06401 -2.30957,-0.06065 -3.46196,0 -2.432819,0.128043 -4.852973,0.612865 -7.288344,0.728835 -0.66734,0.03178 -1.336953,-0.03178 -2.004293,0 -4.927602,0.234648 -9.82699,1.069964 -14.758897,1.275461 -1.396931,0.05821 -2.793865,-0.0635 -4.190796,0 -0.609761,0.02772 -1.212387,0.153175 -1.822088,0.182207 -4.82723,0.229868 -9.757902,0.03683 -14.576686,-0.182207 -2.36882,-0.107675 -4.750118,-0.467056 -7.106134,-0.728835 -1.526538,-0.169616 -3.033263,-0.247343 -4.555215,-0.364419 -1.707269,-0.131328 -3.427185,-0.576111 -5.101842,-0.911042 -1.609785,-0.321956 -3.372061,-0.512913 -4.91963,-1.09325 -0.806622,-0.302483 -1.568403,-0.773129 -2.368712,-1.093253 -2.091949,-0.83678 -4.059859,-1.799323 -6.012884,-2.915336 -1.141414,-0.652237 -2.290625,-1.418627 -3.461963,-2.004295 -0.937736,-0.468868 -1.893684,-0.945772 -2.55092,-1.822088 -0.354475,-0.472633 -0.06041,-0.302069 -0.182208,-0.911042 -0.02663,-0.133173 -0.155574,-0.231243 -0.182209,-0.364416 -0.140161,-0.700802 0.14016,-1.485701 0,-2.186503 -0.03767,-0.188336 -0.150633,-0.357175 -0.182209,-0.546627 -0.06643,-0.398605 0.09836,-0.882036 0,-1.275458 -0.09377,-0.375087 -0.270646,-0.718169 -0.364417,-1.093253 -0.102833,-0.411332 -0.126318,-2.900799 0,-3.279754 0.04295,-0.128841 0.139262,-0.235577 0.182209,-0.364419 0.05122,-0.153664 -0.07194,-0.402735 0,-0.546623 0.09274,-0.185479 0.526083,-0.746705 0.546626,-0.911045 0.05273,-0.421871 0,-0.850305 0,-1.275459 z" id="path18"/>
    <path fill="url(#linearGradient32)" fillOpacity="1" strokeWidth="0.264999" d="m 214.09509,56.849078 c -1.95206,-0.460195 -3.89356,0 -5.83067,0 -0.95853,0 -2.15797,-0.187915 -3.09755,0 -1.2286,0.245721 -2.42848,0.607121 -3.64417,0.911045 -0.42201,0.105503 -1.02073,0 -1.45767,0 -1.51841,0 -3.03681,0 -4.55522,0 -0.54934,0 -1.28735,-0.133683 -1.82208,0 -1.20423,0.301056 -2.38628,0.701395 -3.64417,0.911043 -0.50747,0.08458 -1.12458,0 -1.63988,0 -0.73072,0 -1.64567,0.120507 -2.36871,0 -0.13397,-0.02233 -0.23125,-0.155575 -0.36442,-0.182208 -0.95005,-0.190011 -1.93867,-0.182211 -2.91534,-0.182211 -0.65525,0 -1.19544,0.09269 -1.82208,0.182211 -1.4249,0.203557 -2.95389,-0.236522 -4.37301,0 -1.44456,0.24076 -3.81485,0.392094 -5.28405,0.182208 -0.43772,-0.06253 -0.83774,-0.301887 -1.27546,-0.364419 -0.73293,-0.104704 -1.45675,-0.260165 -2.1865,-0.364416 -0.42088,-0.06013 -0.85609,0.06989 -1.27546,0 -0.18945,-0.03158 -0.35649,-0.155046 -0.54663,-0.182208 -1.16096,-0.165851 -2.47031,0 -3.64417,0 -0.85203,0 -1.90007,-0.166613 -2.73313,0 -1.29665,0.259331 -2.80361,0.824063 -4.19079,0.546624 -0.66712,-0.133421 -1.34408,-0.232373 -2.0043,-0.364416 -0.60662,-0.121325 -1.19499,-0.442111 -1.82208,-0.546626 -1.08184,-0.180306 -2.19216,-0.02684 -3.27976,-0.182208 -0.81333,-0.116189 -1.58384,-0.415814 -2.36871,-0.546627 -1.05142,-0.175236 -2.26465,0.01302 -3.27976,0.182208 -0.53185,0.08864 -1.10802,-0.08864 -1.63987,0 -0.6612,0.110202 -1.12508,0.182211 -1.82209,0.182211 -1.94356,0 -3.88712,0 -5.83067,0 -0.74305,0 -1.64495,-0.144754 -2.36871,0 -0.97652,0.195302 -1.93543,0.383307 -2.91534,0.546624 -1.10161,0.183602 -2.59975,0.0789 -3.64417,-0.182208 -0.68097,-0.170241 -1.66654,0 -2.36872,0 -1.70061,0 -3.40122,0 -5.10184,0 -2.06503,0 -4.13006,0 -6.19509,0 -0.99192,0 -2.11546,-0.140296 -3.09754,0 -1.15726,0.165322 -2.30874,0.35442 -3.46197,0.546626 -1.00046,0.166743 -2.10382,-0.198747 -3.09754,0 -0.92205,0.184409 -1.83996,0.323332 -2.733132,0.546627 -1.969731,0.492432 -3.934185,1.248507 -6.012884,0.728834 -1.164389,-0.291097 -2.474463,-0.233942 -3.644172,0 -0.667886,0.133578 -1.318358,0.591645 -2.004293,0.728835 -0.832245,0.166446 -1.72628,0.01728 -2.550922,0.182208 -0.364445,0.07289 -0.728806,0.291528 -1.093251,0.364415 -0.17867,0.03573 -0.367956,-0.03573 -0.546626,0 -0.97645,0.195292 -2.602749,0.88486 -3.461962,1.457669 -2.041382,1.360922 -3.294658,3.127349 -4.373007,5.28405 -0.305797,0.611597 -1.206492,1.354216 -1.639877,2.004295 -0.491582,0.737373 -1.063307,1.579986 -1.457669,2.368711 -0.212383,0.424768 0,1.521233 0,2.004293 0,0.06391 -0.06971,0.841336 0,0.911045 0.209982,0.209982 0.822288,0.228936 1.093251,0.364416 0.614553,0.307277 0.727466,1.183672 1.275461,1.457669 0.632904,0.316452 1.322215,0.06853 2.004295,0.182208 1.323904,0.220652 2.62881,0.489852 4.008589,0.364419 2.435756,-0.221433 4.849378,-0.919041 7.288342,-1.093253 0.484655,-0.03462 0.972857,0.03232 1.457669,0 1.212482,-0.08083 2.439558,-0.386009 3.644172,-0.546624 1.984438,-0.264594 4.013808,-0.617776 6.012884,-0.728835 0.545785,-0.03032 1.094091,0.03032 1.639872,0 2.15505,-0.119726 1.12471,-0.244692 3.27976,-0.364418 4.49377,-0.249653 9.0108,0.129016 13.48343,0.364418 2.18292,0.11489 4.37686,0.05382 6.55951,0.182208 0.48883,0.02875 0.96885,0.153453 1.45767,0.182208 3.05555,0.17974 6.11864,-0.369194 9.11043,-0.182208 3.96583,0.247865 7.85807,0.364416 11.84356,0.364416 1.26247,0 2.56783,0.09681 3.82638,0 1.2816,-0.09858 2.54431,-0.455049 3.82638,-0.546624 0.42407,-0.03029 0.85156,0.03261 1.27546,0 0.36836,-0.02834 0.72884,-0.121473 1.09325,-0.18221 0.42516,-0.06074 0.84708,-0.151609 1.27546,-0.182208 0.84815,-0.06058 1.70278,0.06058 2.55092,0 1.16522,-0.08323 2.30068,-0.457295 3.46197,-0.546627 1.46297,-0.112535 2.91639,-0.231997 4.373,-0.364416 2.21876,-0.201705 4.53744,0.02477 6.74172,0.182208 0.84814,0.06058 1.70312,-0.06521 2.55092,0 1.74678,0.134369 3.51799,0.308356 5.28405,0.182208 0.85676,-0.06119 1.69416,-0.303218 2.55092,-0.364416 2.85841,-0.204173 5.71558,-0.287697 8.5638,-0.546626 0.65115,-0.0592 1.35316,-0.305221 2.0043,-0.364416 2.24327,-0.203933 4.50691,-0.298315 6.74172,-0.546627 0.49778,-0.05531 0.96069,-0.302294 1.45766,-0.364416 0.65435,-0.08179 1.3583,-0.05301 2.0043,-0.18221 0.42211,-0.08442 0.85334,-0.279993 1.27546,-0.364416 0.58763,-0.117525 1.2296,-0.06371 1.82208,-0.182208 0.79444,-0.15889 2.35245,-1.076981 2.91534,-1.63988 0.096,-0.09603 0.0862,-0.268382 0.18221,-0.364415 0.096,-0.09603 0.26839,-0.08618 0.36442,-0.182208 0.80247,-0.802479 1.73679,-3.0743 1.45767,-4.190799 -0.32911,-1.31644 -0.57979,-2.683553 -0.91105,-4.008589 -0.12875,-0.51503 -0.66018,-1.412766 -0.36441,-2.004295 0.16173,-0.323458 0.38489,-0.587584 0.54662,-0.911042 0.085,-0.169937 -0.16311,-0.278088 0.18221,-0.364416 0.41665,-0.104161 0.85031,-0.121473 1.27546,-0.182211 z" id="path17"/>
    <path fill="url(#linearGradient30)" fillOpacity="1" strokeWidth="0.264999" d="m 214.64172,59.764416 c -0.85682,0.279416 -1.68642,0.805085 -2.55092,1.093253 -0.75663,0.252209 -1.6085,-0.257625 -2.18651,-0.546627 -0.10865,-0.05432 -0.25577,0.05432 -0.36441,0 -0.0768,-0.03841 -0.10073,-0.155045 -0.18221,-0.182207 -0.41909,-0.139698 -1.76741,-0.139698 -2.18651,0 -0.18145,0.06048 -0.36517,0.303932 -0.54662,0.364415 -0.11524,0.03841 -0.24918,-0.03841 -0.36442,0 -0.0815,0.02716 -0.10538,0.143796 -0.18221,0.182211 -0.10865,0.05432 -0.24918,-0.03842 -0.36441,0 -0.54993,0.183309 -1.09848,0.366157 -1.63988,0.546624 -0.48361,0.161205 -0.80864,0.573228 -1.27546,0.728834 -0.46181,0.153938 -0.9809,0.245224 -1.45767,0.364419 -0.92205,0.230513 -3.65498,0 -4.73742,0 -1.22666,0 -3.83538,-0.21685 -4.91964,0 -0.97269,0.194537 -1.91046,0.182208 -2.91533,0.182208 -1.27651,0 -2.81668,-0.215096 -4.00859,0.182208 -0.53074,0.176911 -0.93949,0.556106 -1.45767,0.728834 -0.19669,0.06556 -0.56899,0.07565 -0.72884,0.182208 -0.14293,0.09529 -0.21076,0.287592 -0.36441,0.364419 -0.10865,0.05432 -0.24657,-0.02946 -0.36442,0 -0.39508,0.09877 -0.51597,0.447855 -0.91104,0.546626 -0.11785,0.02946 -0.24657,-0.02946 -0.36442,0 -0.38585,0.09646 -0.7074,0.450162 -1.09325,0.546624 -0.354,0.0885 -0.73925,0.09371 -1.09325,0.182208 -0.72637,0.181594 -1.48607,0.63087 -2.18651,0.911045 -0.63006,0.252024 -0.12672,0.09504 -0.72883,0.546624 -0.63626,0.4772 -2.31116,1.443281 -3.09755,1.63988 -1.42908,0.357269 -3.12612,-0.357273 -4.55521,0 -0.13175,0.03294 -0.23266,0.149267 -0.36442,0.182208 -0.39768,0.09942 -0.87402,-0.08029 -1.27546,0 -1.27358,0.254717 -2.55256,0.65628 -3.82638,0.911042 -0.17867,0.03574 -0.36795,-0.03573 -0.54662,0 -0.59526,0.119052 -1.25367,0.501467 -1.82209,0.728834 -0.57925,0.231701 -1.05064,0.266211 -1.63988,0.364416 -0.74853,0.124757 -1.43797,0.604081 -2.1865,0.728835 -0.17973,0.02996 -0.3669,-0.02995 -0.54663,0 -0.6899,0.114985 -0.38262,0.300646 -1.09325,0.18221 -1.24181,-0.20697 -2.49801,-0.868722 -3.46196,-1.639879 -0.26829,-0.21463 -0.45398,-0.522687 -0.72884,-0.728835 -0.46121,-0.345913 -2.25432,-1.559398 -2.55091,-2.004292 -0.23342,-0.350121 -0.72962,-0.730404 -0.91105,-1.093253 -0.0272,-0.05433 0.043,-0.139261 0,-0.182208 -0.0429,-0.04295 -0.13926,0.04295 -0.18221,0 -0.0429,-0.04295 0.0429,-0.139261 0,-0.182208 -0.30552,-0.305523 -0.5707,-0.250971 -0.91104,-0.364419 -0.65348,-0.217823 -1.32854,-0.822947 -2.0043,-1.09325 -1.83416,-0.733663 0.38687,0.142269 -0.91104,-0.182208 -0.85569,-0.213924 -1.6711,-0.735081 -2.55092,-0.911043 -0.40834,-0.08167 -0.8735,-0.08172 -1.27546,-0.18221 -0.26351,-0.06588 -0.46532,-0.298538 -0.72883,-0.364416 -0.81181,-0.202954 -1.56637,-0.461386 -2.36871,-0.728835 -0.97063,-0.323543 -3.03797,0.323541 -4.00859,0 -0.31259,-0.104195 -0.62042,-0.08533 -0.91104,-0.182208 -0.0815,-0.02716 -0.10073,-0.155048 -0.18222,-0.18221 -0.65594,-0.218649 -1.53055,0.218652 -2.1865,0 -1.58776,-0.529254 -3.39579,-0.01654 -4.91963,0.364418 -0.41456,0.10364 -2.71441,0.127712 -3.09755,0 -0.0815,-0.02716 -0.10072,-0.155045 -0.1822,-0.182208 -0.11524,-0.03841 -0.24918,0.03841 -0.36442,0 -0.36899,-0.122999 -0.71954,-0.422055 -1.09325,-0.546626 -0.43495,-0.144981 -0.9335,-0.0075 -1.45767,-0.182208 -0.50542,-0.168473 -1.18515,0.06853 -1.63988,0.182208 -0.6288,0.157199 -1.3755,-0.1572 -2.00429,0 -0.13176,0.03294 -0.23266,0.14927 -0.36442,0.182208 -0.50495,0.126238 -1.14765,-0.164076 -1.63988,0 -1.4887,0.496234 -4.02065,0.182208 -5.64846,0.182208 -1.43976,0 -3.00609,-0.15952 -4.37301,0.18221 -0.33566,0.08392 -0.76584,-0.109138 -1.09325,0 -0.0815,0.02716 -0.10072,0.155046 -0.18221,0.182208 -1.013708,0.337902 -3.177462,-0.337777 -4.190798,0 -0.76359,0.25453 -1.506791,0.206772 -2.186503,0.546627 -0.194355,0.09718 -0.534477,-0.09718 -0.728835,0 -0.26307,0.131535 -0.465762,0.232881 -0.728832,0.364416 -0.145766,0.07288 -0.400859,-0.07288 -0.546626,0 -0.412194,0.206097 -0.669745,0.223247 -1.093253,0.364418 -0.08149,0.02716 -0.100722,0.155046 -0.182208,0.182208 -0.115239,0.03841 -0.249179,-0.03841 -0.364416,0 -0.08149,0.02716 -0.100724,0.155046 -0.182211,0.182208 -0.115236,0.03841 -0.249176,-0.03841 -0.364416,0 -0.605199,0.201735 -1.285446,0.917702 -1.822084,1.275461 -0.472083,0.314722 -1.24205,0.513215 -1.63988,0.911043 -0.09603,0.09603 -0.08617,0.268385 -0.182208,0.364416 -0.931153,0.931156 0.254132,-0.763995 -0.728834,0.546626 -0.610534,0.814046 -1.512631,2.261793 -1.639877,3.279754 -0.202465,1.619726 0.02093,6.054738 0.728834,7.470553 0.143254,0.286509 0.503029,0.377272 0.728835,0.546626 0.274859,0.206145 0.460547,0.514205 0.728834,0.728835 0.555006,0.444002 1.231366,0.699436 1.822085,1.09325 0.434724,0.289817 0.832406,0.634135 1.275461,0.911045 1.374272,0.85892 2.965336,1.382117 4.373007,2.186501 0.935458,0.534548 1.702059,1.253228 2.733127,1.639879 0.698884,0.262081 1.487623,0.284544 2.186504,0.546624 0.254325,0.09537 0.468669,0.286369 0.728834,0.364419 0.70773,0.212317 1.46968,0.185211 2.1865,0.364416 0.72884,0.182208 1.45767,0.364418 2.18651,0.546626 1.45327,0.363318 2.89384,0.824312 4.373,1.093251 2.24635,0.408426 4.49503,0.590087 6.74172,0.911045 1.62635,0.232333 3.28049,0.619556 4.91963,0.728834 3.08384,0.205589 6.2088,-0.205592 9.29264,0 3.82608,0.255072 7.64786,0.503462 11.47914,0.728832 1.59768,0.09398 3.15158,-0.08892 4.73742,-0.182208 1.09137,-0.0642 2.18819,0.06064 3.27976,0 0.48892,-0.02716 0.96884,-0.153453 1.45767,-0.182208 3.21484,-0.189108 6.44288,-0.163531 9.65705,-0.364416 2.73316,-0.170823 5.48501,-0.731335 8.19939,-1.093253 1.28855,-0.171807 2.53975,-0.265446 3.82638,-0.364416 1.70883,-0.13145 3.3924,-0.606732 5.10184,-0.728834 0.42407,-0.03029 0.85139,0.03029 1.27546,0 1.28193,-0.09157 2.54445,-0.45506 3.82638,-0.546627 2.55209,-0.182292 5.10122,-0.350353 7.65276,-0.546626 1.14687,-0.08822 2.31576,0.09552 3.46196,0 1.03853,-0.08654 2.04143,-0.287819 3.09755,-0.182208 2.4116,0.241159 5.5902,0.66779 8.01718,0.364416 1.28668,-0.160835 2.45646,-0.830067 3.64417,-1.275459 0.72154,-0.270578 1.3846,-0.394628 2.0043,-0.911042 2.41544,-2.012871 3.28991,-4.778089 4.00858,-7.652761 0.0794,-0.317696 0.285,-0.593349 0.36442,-0.911045 0.12631,-0.50523 -0.16415,-1.147418 0,-1.639877 0.0429,-0.128841 0.14927,-0.232661 0.18221,-0.364416 0.0776,-0.310509 0,-0.771961 0,-1.093253 0,-1.160298 0.19002,-2.504077 0,-3.644169 -0.0873,-0.523833 -0.18221,-0.913133 -0.18221,-1.457669 0,-1.292024 0.0131,-2.394929 0.54663,-3.461965 0.17973,-0.359473 0,-3.419909 0,-3.644172 z" id="path16"/>
    <path fill="url(#linearGradient26)" fillOpacity="1" strokeWidth="0.264999" d="m 110.96503,66.141718 c 0.35305,-0.296947 1.34999,0.157364 1.82209,0 0.39418,-0.131394 0.75688,-0.196236 1.09325,-0.364418 0.54596,-0.272984 2.7126,0.187341 3.46196,0 0.48999,-0.122497 0.96768,-0.241919 1.45767,-0.364416 0.39768,-0.09942 0.87402,0.08029 1.27546,0 0.42212,-0.08442 0.85334,-0.279996 1.27546,-0.364419 0.17867,-0.03573 0.36986,0.04419 0.54663,0 0.0833,-0.02082 0.10072,-0.155046 0.1822,-0.182208 0.64399,-0.214664 3.22794,0 4.00859,0 0.46863,0 0.65988,-0.03775 1.09326,-0.182208 0.60933,-0.20311 4.5,0 5.46625,0 1.57914,0 3.15828,0 4.73743,0 0.59288,0 1.4282,0.144024 2.00429,0 1.24478,-0.311195 2.39756,-0.599392 3.64417,-0.911042 0.90131,-0.22533 2.03736,0.292658 2.91534,0 0.0815,-0.02716 0.10072,-0.155049 0.18221,-0.182211 0.43736,-0.145785 1.00907,0.112149 1.45767,0 0.13175,-0.03294 0.23266,-0.14927 0.36441,-0.182208 0.74313,-0.18578 1.62559,0.185783 2.36871,0 0.13176,-0.03294 0.23267,-0.14927 0.36442,-0.182208 0.90258,-0.225644 2.38583,0.05503 3.09755,-0.182208 0.0815,-0.02716 0.10072,-0.155048 0.18221,-0.18221 0.3203,-0.106768 1.48035,-0.113909 1.82208,0 0.88072,0.293574 1.66932,0.740611 2.55092,1.093253 0.96656,0.386622 2.08247,0.559654 3.09755,0.728834 0.68289,0.113816 1.49287,0 2.1865,0 2.25884,0 4.72546,-0.257487 6.92393,0.182208 0.75337,0.150675 4.55923,0.0594 5.28405,-0.182208 0.0815,-0.02716 0.10072,-0.155048 0.18221,-0.182208 0.32916,-0.109722 3.15141,-0.285726 3.46196,-0.18221 0.0815,0.02716 0.10072,0.155048 0.18221,0.18221 0.27331,0.0911 0.63773,-0.09111 0.91104,0 0.23374,0.07792 0.49509,0.286502 0.72884,0.364416 0.11523,0.03841 0.24917,-0.03841 0.36441,0 0.0815,0.02716 0.10072,0.155046 0.18221,0.182208 0.4373,0.145767 1.02037,-0.145767 1.45767,0 0.0815,0.02716 0.10072,0.155049 0.18221,0.182208 0.43296,0.144322 1.175,0 1.63988,0 0.8352,0 3.97637,-0.192947 4.55521,0 0.0815,0.02716 0.10072,0.155049 0.18221,0.182211 0.48491,0.161636 1.06091,-0.0108 1.63988,0.182208 0.83384,0.277947 3.15508,-0.335648 3.82638,0 0.35573,0.177863 1.12445,0.617762 1.45767,0.728834 0.11523,0.03841 0.24917,-0.03841 0.36441,0 0.36828,0.122762 0.72131,0.422643 1.09325,0.546627 0.32437,0.108122 0.76889,0.07409 1.09325,0.182208 0.38831,0.129436 0.73056,0.365278 1.09326,0.546626 0.1764,0.0882 0.34591,-0.0093 0.72883,0.182208 0.48383,0.241914 1.30443,-0.172553 1.82209,0 0.87129,0.290431 1.35611,0.131432 2.1865,0.546627 0.48589,0.242943 1.3362,-0.242946 1.82209,0 0.50801,0.254008 0.67951,0.0443 1.09325,0.182208 0.38793,0.129309 0.70532,0.235106 1.09325,0.364416 0.41408,0.138027 1.07063,-0.193517 1.45767,0 1.15885,0.579429 2.74323,0.642781 4.00859,1.27546 0.74344,0.371722 1.84225,3.380592 2.00429,4.190797 0.17123,0.856154 0.40329,1.690909 0.54663,2.550922 0.0941,0.564732 0.13382,5.7082 0,6.377299 -0.15229,0.76141 -0.47547,1.426395 -0.72884,2.186504 -0.25299,0.758976 -0.41729,1.641795 -0.72883,2.368711 -0.0863,0.201282 -0.26648,0.350758 -0.36442,0.546627 -0.17179,0.343574 -0.16678,0.763862 -0.36442,1.09325 -0.0884,0.147307 -0.27603,0.217112 -0.36441,0.364419 -0.13577,0.226279 -0.41086,0.86697 -0.54663,1.09325 -0.51413,0.856877 -0.8455,1.916898 -1.45767,2.73313 -0.15461,0.206145 -0.40369,0.332221 -0.54662,0.546624 -0.17702,0.26553 -0.11376,0.379518 -0.36442,0.546626 -0.33664,0.224425 -0.74154,0.552977 -1.09325,0.728835 -1.83794,0.918969 -3.87954,0.36925 -5.83068,0.546626 -0.65894,0.05991 -1.34535,0.122304 -2.00429,0.182208 -2.11525,0.192297 -4.23359,0.54306 -6.3773,0.364419 -2.64348,-0.220292 -5.41262,-0.309994 -8.01718,-0.911045 -1.50674,-0.347708 -2.99218,-0.790808 -4.55521,-0.911043 -1.24404,-0.09569 -2.40067,-0.173109 -3.64418,-0.364416 -2.4711,-0.380172 -4.9771,-0.901448 -7.47055,-1.093253 -1.27214,-0.09786 -2.55322,-0.273476 -3.82638,-0.364416 -4.41183,-0.315132 -8.88639,0.275926 -13.30123,0 -2.83413,-0.177133 -5.78056,-0.718812 -8.5638,-1.275461 -0.94625,-0.189248 -2.00032,-0.24162 -2.91534,-0.546626 -0.25768,-0.08589 -0.47115,-0.278522 -0.72883,-0.364416 -0.29381,-0.09794 -0.61724,-0.08428 -0.91104,-0.182208 -0.85299,-0.284329 -1.68691,-0.623041 -2.55093,-0.911045 -1.00252,-0.334174 -2.10561,-0.356857 -3.09754,-0.728832 -1.88372,-0.706395 -3.7354,-1.366607 -5.64847,-2.004295 -0.82755,-0.275852 -1.71966,-0.297252 -2.55092,-0.546627 -1.20501,-0.361503 -2.45355,-0.696378 -3.64417,-1.09325 -0.25768,-0.08589 -0.47115,-0.278524 -0.72883,-0.364419 -0.29381,-0.09793 -0.61724,-0.08427 -0.91105,-0.182208 -1.80604,-0.602014 -3.15556,-1.926672 -4.73742,-2.915338 -0.23033,-0.143957 -0.50781,-0.206541 -0.72883,-0.364416 -0.37954,-0.2711 -0.89593,-0.822153 -1.27546,-1.093253 -0.5304,-0.378854 -1.13109,-0.686218 -1.63988,-1.09325 -0.26829,-0.21463 -0.45397,-0.52269 -0.72883,-0.728834 -0.10865,-0.08149 -0.26839,-0.08618 -0.36442,-0.182208 -0.096,-0.09603 -0.0862,-0.268386 -0.18221,-0.364419 -0.22703,-0.227026 -0.6098,-0.37174 -0.72884,-0.728834 -0.0384,-0.11524 0.0384,-0.249177 0,-0.364416 -0.0764,-0.22923 -0.2748,-0.459994 -0.36441,-0.728835 -0.0547,-0.163989 0.0547,-0.382638 0,-0.546626 -0.0272,-0.08149 -0.15505,-0.100722 -0.18221,-0.182208 -0.0911,-0.273315 0.0911,-0.637731 0,-0.911043 -0.0272,-0.08149 -0.15505,-0.100724 -0.18221,-0.18221 -0.16825,-0.504749 -0.0399,-1.435185 -0.18221,-2.004293 -0.18452,-0.73809 -0.73194,-4.193908 -1.09325,-4.555215 -0.0911,-0.0911 -0.27331,-0.0911 -0.36442,-0.182208 -0.35415,-0.35415 0.22683,-0.976095 0.36442,-1.457669 z" id="path15"/>
    <path fill="url(#linearGradient24)" fillOpacity="1" strokeWidth="0.264999" d="m 213.73067,64.319631 c -0.7691,0.646758 -2.06164,-0.102354 -2.91533,0.18221 -0.60326,0.201084 -1.20671,0.39278 -1.82209,0.546624 -0.36278,0.0907 -0.90572,0 -1.27546,0 -0.66993,0 -2.15093,-0.194064 -2.73313,0 -0.0815,0.02716 -0.10072,0.155049 -0.18221,0.182208 -0.27331,0.09111 -0.63773,-0.0911 -0.91104,0 -0.0815,0.02716 -0.10072,0.155049 -0.18221,0.182211 -0.32797,0.109323 -0.76527,-0.109326 -1.09325,0 -0.65046,0.216821 -4.1369,0.382381 -4.73742,0.182208 -0.72684,-0.242279 -4.59601,-0.354219 -5.28405,-0.182208 -0.37509,0.09377 -0.71817,0.270645 -1.09325,0.364416 -0.23569,0.05892 -0.49315,-0.05892 -0.72884,0 -0.48999,0.122496 -0.96768,0.241919 -1.45767,0.364418 -1.00512,0.25128 -2.29867,-0.327027 -3.27975,0 -0.72653,0.242173 -1.44899,0.362247 -2.1865,0.546624 -0.5036,0.125899 -1.14861,-0.163756 -1.63988,0 -0.0815,0.02716 -0.10073,0.155049 -0.18221,0.182211 -0.27331,0.0911 -0.63773,-0.0911 -0.91104,0 -0.0815,0.02716 -0.10073,0.155046 -0.18221,0.182208 -0.32741,0.109135 -0.75759,-0.08392 -1.09325,0 -0.13176,0.03294 -0.23267,0.14927 -0.36442,0.182208 -1.20152,0.300381 -2.61023,-0.243232 -3.82638,0 -1.86775,0.373549 -3.7891,0.174754 -5.64847,0.546626 -0.4088,0.08176 -0.86666,-0.08176 -1.27546,0 -0.13317,0.02663 -0.23266,0.14927 -0.36441,0.182208 -0.34299,0.08575 -0.75027,-0.08575 -1.09326,0 -0.13175,0.03294 -0.23266,0.14927 -0.36441,0.182208 -0.39343,0.09836 -0.87686,-0.06643 -1.27546,0 -1.70917,0.284861 -3.25838,0.860147 -4.91963,1.275461 -1.02176,0.255439 -3.27399,-0.305604 -4.1908,0 -0.66622,0.222073 -1.32716,0.377341 -2.0043,0.546627 -0.33641,0.0841 -0.76525,-0.109332 -1.09325,0 -0.49825,0.166081 -0.95942,0.380542 -1.45767,0.546623 -0.11524,0.03842 -0.25577,-0.05432 -0.36441,0 -0.0768,0.03842 -0.10073,0.155049 -0.18221,0.182211 -0.11524,0.03841 -0.24918,-0.03842 -0.36442,0 -0.0815,0.02716 -0.10072,0.155046 -0.18221,0.182208 -0.11524,0.03841 -0.24918,-0.03841 -0.36442,0 -0.24807,0.08269 -1.91678,1.377333 -2.00429,1.639877 -0.11524,0.163507 0.0576,0.373766 0,0.546626 -0.36471,1.094132 -0.13008,2.603043 0.72883,3.461962 0.096,0.09603 0.25577,0.100724 0.36442,0.182211 0.40815,0.306109 0.6851,0.78714 1.09325,1.09325 0.10865,0.08149 0.26839,0.08617 0.36442,0.182208 0.096,0.09603 0.0862,0.268385 0.18221,0.364419 0.096,0.09603 0.25577,0.100721 0.36442,0.182208 1.14871,0.861531 2.30606,1.469051 3.64417,2.004295 0.46162,0.184647 0.81384,0.544184 1.27546,0.728832 1.39312,0.557252 2.79619,1.082037 4.1908,1.639879 1.19336,0.477348 2.53738,0.950029 3.82638,1.093251 1.97985,0.219982 4.03303,-0.219983 6.01288,0 0.24889,0.02765 0.47994,0.154553 0.72883,0.182208 1.65502,0.18389 3.43607,0 5.10184,0 1.19272,0 2.45817,0.118599 3.64417,0 0.85271,-0.08527 1.6977,-0.286851 2.55092,-0.364416 0.66536,-0.06049 1.33952,0.06648 2.0043,0 2.7502,-0.275021 5.46399,-0.751327 8.19939,-1.093253 0.71643,-0.08955 1.47193,0.102081 2.1865,0 0.19013,-0.02716 0.35649,-0.155046 0.54662,-0.182208 1.39136,-0.198766 2.96721,0 4.37301,0 1.27515,0 2.7559,-0.208783 4.00859,0 0.81434,0.135723 1.58087,0.389059 2.36871,0.546626 0.39565,0.07913 3.34357,0.100203 3.64417,0 0.0815,-0.02716 0.10072,-0.155045 0.18221,-0.182208 0.11524,-0.03841 0.24657,0.02946 0.36442,0 0.44747,-0.111868 1.76216,-0.992565 2.1865,-1.275461 0.35514,-0.236757 0.74182,-0.370906 1.09325,-0.546626 0.24404,-0.122021 0.25248,-0.434681 0.36442,-0.546624 0.0429,-0.04295 0.13926,0.04295 0.18221,0 0.11663,-0.116634 0.49167,-1.602264 0.54662,-1.822087 0.0715,-0.285817 -0.0714,-0.625227 0,-0.911043 0.40905,-1.636199 0.18221,-3.562252 0.18221,-5.284049 0,-1.750216 0.0481,-3.451945 -0.36441,-5.101841 -0.0442,-0.176769 0.0576,-0.373767 0,-0.546624 -0.13932,-0.417963 -0.0807,-0.504971 -0.18221,-0.911045 -0.14508,-0.580322 -0.57471,-1.061892 -0.72884,-1.639877 -0.12617,-0.473136 -0.12147,-0.971778 -0.1822,-1.457669" id="path14"/>
    <path fill="#24292d" fillOpacity="1" strokeWidth="0.264999" d="m -11.338002,45.609689 c 1.02566,0.17217 1.8915323,0.537303 2.8345007,0.773044 0.9700963,0.242525 2.1220858,-0.242522 3.0921824,0 0.8550299,0.21376 1.7217814,0.301607 2.5768184,0.515366 0.6473462,0.161835 1.4062124,-0.131051 2.06145492,0 0.70698425,0.141396 1.35447062,0.373965 2.06145488,0.515363 0.3194531,0.06389 3.3051544,0.235326 3.349864,0.257681 0.5929712,0.296487 1.1739845,0.305435 1.803773,0.515363 0.115239,0.03842 0.1424432,0.219271 0.257682,0.257683 0.1629722,0.05432 0.3487049,-0.04166 0.5153636,0 0.7071106,0.176779 1.3684242,0.542036 2.061455,0.773046 0.5475462,0.182515 1.2645561,0.07794 1.8037731,0.257681 0.115239,0.03841 0.142443,0.219271 0.257682,0.257683 0.244458,0.08149 0.542568,-0.11524 0.773045,0 0.108648,0.05432 0.142443,0.219268 0.257682,0.25768 0.69489,0.231632 1.606875,-0.178064 2.319137,0 0.77412,0.193532 1.545016,0.321834 2.319136,0.515363 0.333318,0.08333 0.697411,-0.08333 1.030728,0 0.611681,0.152922 1.192092,0.362445 1.803773,0.515366 0.416647,0.104162 0.867279,-0.08423 1.288409,0 0.86871,0.173742 1.708109,0.599303 2.576819,0.773044 0.252678,0.05054 0.520367,-0.05054 0.773045,0 0.521986,0.104399 1.0277,0.385768 1.546092,0.515364 0.993913,0.24848 2.098266,0.266885 3.092181,0.515366 1.296718,0.324178 2.525935,0.762867 3.865229,1.030726 0.412951,0.08259 0.875456,-0.08259 1.28841,0 0.188333,0.03767 0.327027,0.220014 0.515363,0.257681 1.087237,0.217447 2.269903,0.04169 3.349863,0.257683 1.030269,0.206054 2.039779,0.365019 3.092183,0.515363 0.510183,0.07288 1.040736,-0.101071 1.54609,0 1.066001,0.213201 2.267455,0.850326 3.349866,1.030727 3.005256,0.500877 5.989193,1.298829 9.018865,1.803773 1.002869,0.167145 2.089311,-0.167143 3.092183,0 0.267922,0.04466 0.506698,0.204414 0.773043,0.257683 1.565188,0.313036 3.362005,-0.100645 5.153639,0.257683 0.660723,0.132143 1.400731,-0.132147 2.061453,0 0.188336,0.03767 0.325914,0.226105 0.515364,0.25768 0.834464,0.139078 1.739225,-0.119655 2.576819,0 0.268891,0.03841 0.505122,0.213029 0.773047,0.257683 0.508351,0.08472 1.037738,-0.08472 1.54609,0 1.03265,0.172109 2.059532,0.343255 3.092182,0.515363 1.34982,0.22497 2.772913,0.03268 4.12291,0.257681 1.800328,0.300056 3.604908,0.72966 5.411319,1.030729 0.668581,0.111429 1.392875,-0.111432 2.061456,0 0.703485,0.117247 1.388732,0.380817 2.061453,0.515363 1.238856,0.247772 2.626373,-0.247771 3.865229,0 0.188333,0.03767 0.327028,0.220015 0.515364,0.257681 0.505354,0.101071 1.037738,-0.08472 1.54609,0 1.450721,0.241787 2.929847,0.273574 4.380592,0.515366 0.668578,0.111429 1.392879,-0.111432 2.061449,0 1.63211,0.272015 3.2989,0.45363 4.89596,0.773043 0.18834,0.03767 0.32703,0.220015 0.51536,0.257683 1.40745,0.281488 3.17784,0.01426 4.63828,0.257681 1.82862,0.304771 3.60774,0.670012 5.41132,1.030729 0.50535,0.101071 1.03774,-0.08473 1.54609,0 0.18945,0.03157 0.32703,0.220014 0.51536,0.25768 1.10306,0.220613 2.24423,0.07341 3.34986,0.257683 0.61246,0.102077 1.19469,0.393544 1.80378,0.515364 0.98279,0.196556 2.12122,-0.242742 3.09218,0 0.93618,0.234045 1.89832,0.281318 2.8345,0.515363 0.56241,0.140602 1.23605,-0.113546 1.80378,0 0.18833,0.03767 0.32702,0.220014 0.51536,0.257683 0.81933,0.163865 1.76738,-0.202361 2.57682,0 2.17262,0.543155 4.4862,0.588023 6.69972,1.030727 0.82591,0.165179 1.75092,-0.165182 2.57682,0 0.18834,0.03767 0.32592,0.226107 0.51537,0.25768 0.59307,0.09885 1.21069,-0.09885 1.80377,0 2.59634,0.432726 5.13337,0.855565 7.73046,1.28841 0.95119,0.158533 3.06534,0.05771 3.86523,0.257683 0.60107,0.15027 1.19966,0.394541 1.80377,0.515363 0.41696,0.126339 0.86728,-0.08422 1.28841,0 1.06812,0.213625 2.02406,0.559422 3.09218,0.773047 1.23025,0.246049 2.65001,-0.303806 3.86523,0 0.18633,0.04658 0.33315,0.196945 0.51536,0.25768 0.85095,0.283649 1.96153,-0.218244 2.8345,0 0.84839,0.2121 1.69362,0.338725 2.57682,0.515363 1.06365,0.212733 2.29877,-0.262773 3.34986,0 1.21555,0.303887 2.40326,0.01683 3.60755,0.257683 0.18833,0.03767 0.32903,0.211101 0.51536,0.257683 0.55504,0.138758 1.26262,-0.180385 1.80378,0 0.76149,0.253831 1.54352,0.321458 2.31913,0.515364 1.05094,0.262733 2.29893,-0.262737 3.34987,0 0.18633,0.04658 0.32903,0.211097 0.51536,0.25768 0.40421,0.101052 0.8842,-0.101052 1.28841,0 1.0172,0.254302 2.07498,0.261064 3.09218,0.515363 0.79345,0.198364 1.80334,-0.257826 2.57682,0 0.11524,0.03842 0.14244,0.219271 0.25768,0.257683 0.54113,0.180377 1.26264,-0.180377 1.80378,0 0.11524,0.03841 0.14244,0.219268 0.25768,0.257683 0.99206,0.330687 2.32103,-0.205769 3.34986,0 0.60793,0.121584 1.20025,0.36448 1.80377,0.515364 0.47576,0.118938 1.08224,-0.15462 1.54609,0 0.44207,0.147354 0.87741,0.120679 1.28841,0.25768 0.11524,0.03842 0.14245,0.219271 0.25769,0.257683 0.38652,0.128841 0.90188,-0.128842 1.2884,0 0.11524,0.03841 0.14245,0.219268 0.25769,0.25768 0.87376,0.291256 1.66233,-0.199559 2.57682,0.257683 0.68549,0.34275 5.65635,-0.270332 5.92668,0 0.12884,0.128842 0.12884,0.386522 0.25768,0.515364 0.0607,0.06074 0.19695,-0.06073 0.25768,0 0.37532,0.375319 0.34722,1.814703 0.51537,2.319136 0.80912,2.427375 0.51536,5.611855 0.51536,8.245819 0,2.405031 0,4.810061 0,7.215092 0,0.584052 0.50107,1.574678 0.25768,2.061456 -0.32673,0.653473 -1.10786,2.486541 -1.80377,2.8345 -2.56907,1.284536 -5.86432,1.255855 -8.76119,0.773046 -2.59402,-0.432337 -5.48704,0.294074 -8.24581,-0.257683 -1.8152,-0.363037 -3.83437,0.262091 -5.669,0 -0.3506,-0.05008 -0.68014,-0.207597 -1.03073,-0.25768 -1.17917,-0.168452 -2.42524,0.147788 -3.60755,0 -0.35141,-0.04393 -0.67931,-0.213757 -1.03073,-0.257683 -2.3143,-0.289288 -4.87787,0 -7.21509,0 -2.06921,0 -4.13522,0.259223 -6.18436,0.515363 -1.85723,0.232154 -3.81663,-0.264623 -5.669,0 -0.26889,0.03842 -0.50416,0.219271 -0.77305,0.257683 -2.12858,0.304083 -4.54653,0 -6.69973,0 -5.669,0 -11.338,0 -17.007,0 -4.13475,0 -8.2584,-0.08485 -12.36873,0.257681 -2.89702,0.241419 -5.86912,-0.289206 -8.76118,0 -1.28243,0.128243 -2.5729,0.386132 -3.86523,0.515366 -4.06029,0.406029 -8.35493,-0.150474 -12.36873,-0.515366 -1.02649,-0.09332 -2.06501,0.0856 -3.09218,0 -3.00912,-0.250759 -6.01092,-0.499595 -9.018865,-0.773044 -3.415787,-0.310526 -6.889848,0.05299 -10.307275,-0.257683 -0.436176,-0.03965 -0.851948,-0.221311 -1.288409,-0.257681 -1.620729,-0.135061 -3.275225,0.13506 -4.895956,0 -0.520666,-0.04339 -1.025422,-0.214293 -1.54609,-0.257682 -2.046468,-0.17054 -4.139414,0.185904 -6.184366,0 -0.436176,-0.03965 -0.851945,-0.221311 -1.288407,-0.257683 -1.621062,-0.135089 -3.27398,0.124769 -4.895956,0 -0.605573,-0.04658 -1.197954,-0.214408 -1.803773,-0.257681 -2.970818,-0.212201 -6.039418,0 -9.018865,0 -6.699729,0 -13.399457,0 -20.099184,0 -2.662713,0 -5.325427,0 -7.988138,0 -1.350896,0 -2.779675,0.134324 -4.12291,0 -0.435801,-0.04358 -0.852233,-0.21803 -1.288409,-0.257683 -3.371438,-0.306493 -6.919606,0 -10.307275,0 -1.0690676,0 -2.2861588,0.132964 -3.3498637,0 -0.9594583,-0.11993 -1.893498,-0.358529 -2.8345005,-0.515363 -0.5083517,-0.08472 -1.0377395,0.08473 -1.5460911,0 C 1.6074013,95.996709 0.93465136,95.769212 0.25768186,95.599968 -0.4073635,95.433707 -1.1488061,95.560609 -1.803773,95.342285 -2.1381685,95.230822 -2.5293748,94.772659 -2.8345005,94.569242 -5.3688532,92.879673 -5.9213659,91.615203 -7.4727738,88.90024 -8.444645,87.199466 -9.6943687,85.487779 -10.564956,83.746604 c -0.467705,-0.935411 -0.699551,-2.098654 -1.030728,-3.092183 -1.026342,-3.079028 -2.061454,-5.27267 -2.061454,-8.503502 0,-0.867884 -0.268224,-2.287511 0,-3.092183 0.413983,-1.241949 1.915974,-6.620806 1.546091,-7.730455 -0.389997,-1.16999 -0.910988,-2.217598 -1.28841,-3.349863 -0.320719,-0.962158 -0.06588,-4.440648 0.257682,-5.411319 0.130227,-0.390682 0,-1.12652 0,-1.546091 0,-2.917621 -0.353527,-2.89447 1.803773,-5.411319 z" id="path12"/>
    <rect fill="#24292d" fillOpacity="1" strokeWidth="0.264999" id="rect36" width="265.66013" height="22.958282" x="-18.949694" y="92.744171"/>
  </g>
</svg>