<svg width="800" height="800" viewBox="0 0 400 400"><defs><g id="c"><circle cx="200" cy="200" r="18" fill="#ed9e49"/><circle cx="200" cy="200" r="14" fill="#fff"/><circle cx="200" cy="200" r="10" fill="#ed9e49"/><circle cx="200" cy="200" r="6" fill="#574c42"/></g><g id="b"><circle cx="200" cy="200" r="12" fill="#ed9e49"/><circle cx="200" cy="200" r="8" fill="#fff"/><circle cx="200" cy="200" r="4" fill="#ed9e49"/></g><g id="a"><circle cx="200" cy="200" r="8" fill="#ed9e49"/><circle cx="200" cy="200" r="4" fill="#fff"/></g></defs><circle cx="200" cy="200" r="200" fill="#574c42"/><use href="#a" y="50"/><use href="#a" y="50" transform="rotate(40 200 200)"/><use href="#a" y="50" transform="rotate(40 200 200)"/><use href="#a" y="50" transform="rotate(80 200 200)"/><use href="#a" y="50" transform="rotate(120 200 200)"/><use href="#a" y="50" transform="rotate(160 200 200)"/><use href="#a" y="50" transform="rotate(200 200 200)"/><use href="#a" y="50" transform="rotate(240 200 200)"/><use href="#b" y="-100"/><use href="#b" y="-100" transform="rotate(25 200 200)"/><use href="#b" y="-100" transform="rotate(50 200 200)"/><use href="#b" y="-100" transform="rotate(75 200 200)"/><use href="#b" y="-100" transform="rotate(100 200 200)"/><use href="#b" y="-100" transform="rotate(125 200 200)"/><use href="#b" y="-100" transform="rotate(150 200 200)"/><use href="#b" y="-100" transform="rotate(175 200 200)"/><use href="#b" y="-100" transform="rotate(200 200 200)"/><use href="#b" y="-100" transform="rotate(225 200 200)"/><use href="#b" y="-100" transform="rotate(250 200 200)"/><use href="#c" y="150"/><use href="#c" y="150" transform="rotate(20 200 200)"/><use href="#c" y="150" transform="rotate(40 200 200)"/><use href="#c" y="150" transform="rotate(60 200 200)"/><use href="#c" y="150" transform="rotate(80 200 200)"/><use href="#c" y="150" transform="rotate(100 200 200)"/><use href="#c" y="150" transform="rotate(120 200 200)"/><use href="#c" y="150" transform="rotate(140 200 200)"/><use href="#c" y="150" transform="rotate(-20 200 200)"/><use href="#c" y="150" transform="rotate(-40 200 200)"/><use href="#c" y="150" transform="rotate(-60 200 200)"/><use href="#c" y="150" transform="rotate(-80 200 200)"/></svg>